<svg width="508" height="123" xmlns="http://www.w3.org/2000/svg">

 <g>
  <title>background</title>
  <rect fill="none" id="canvas_background" height="125" width="510" y="-1" x="-1"/>
 </g>
 <g>
  <title>Layer 1</title>
  <g id="svg_1">
   <g id="svg_2">
    <g id="svg_3">
     <path id="svg_4" d="m492.789,105.597l0,-5.475l-1.957,0l0,-1.116l5.238,0l0,1.116l-1.951,0l0,5.475l-1.33,0z" fill="#828056"/>
     <path id="svg_5" d="m496.91,105.597l0,-6.59l1.992,0l1.194,4.495l1.185,-4.495l1.997,0l0,6.59l-1.237,0l0,-5.188l-1.309,5.188l-1.281,0l-1.303,-5.188l0,5.188l-1.238,0z" fill="#828056"/>
    </g>
    <g id="svg_6">
     <path id="svg_7" d="m80.735,30.261c-7.392,1.136 -8.87,2.274 -8.87,9.438l0,66.641l-3.185,0l-50.833,-61.977l0,45.034c0,8.756 1.934,11.031 10.689,12.054l0,2.842l-25.7,0l0,-2.842c8.301,-1.022 10.006,-2.616 10.006,-9.553l0,-53.449c-4.776,-6.596 -7.391,-8.188 -9.666,-8.188l0,-2.843l23.994,0l39.69,48.9l0,-34.004c0,-9.097 -2.048,-11.256 -10.463,-12.053l0,-2.843l24.337,0l0.001,2.843l0,0z" fill="#828056"/>
     <path id="svg_8" d="m151.846,104.292l-66.527,0l0,-2.842c8.416,-0.91 10.008,-2.729 10.008,-8.644l0,-54.47c0,-5.801 -2.161,-7.621 -10.008,-8.075l0,-2.843l65.618,0l0,22.857l-2.843,0c-2.616,-15.239 -8.416,-18.99 -26.952,-18.99c-5.915,0 -7.392,1.819 -7.392,6.14l0,25.587c12.054,-0.113 17.06,-3.752 18.423,-16.943l2.955,0l0,38.438l-2.955,0c-1.139,-13.532 -6.028,-17.625 -18.423,-17.625l0,27.519c0,4.89 2.048,6.369 9.438,6.369c8.871,0 15.354,-1.706 20.698,-6.14c3.867,-3.186 5.914,-6.596 9.324,-13.988l3.185,0l-4.549,23.65z" fill="#828056"/>
     <path id="svg_9" d="m203.472,106.454c-23.54,0 -40.142,-16.603 -40.142,-40.142c0,-24.223 17.173,-40.599 40.825,-40.599c22.858,0 39.69,16.943 39.69,40.483c0,23.655 -16.832,40.258 -40.373,40.258zm-0.341,-76.99c-12.506,0 -19.673,13.419 -19.673,37.302c0,23.994 7.278,35.935 20.242,35.935c13.078,0 20.015,-12.282 20.015,-35.708c0,-24.221 -7.278,-37.529 -20.584,-37.529z" fill="#828056"/>
     <path id="svg_10" d="m333.682,74.5c-8.527,0.908 -9.779,4.206 -9.779,11.372l0,13.417c-7.393,4.321 -19.675,7.165 -31.5,7.165c-22.855,0 -40.369,-15.465 -40.369,-39.801c0,-22.631 16.828,-40.939 39.572,-40.939c5.912,0 11.03,1.251 17.629,3.979c2.612,1.138 4.094,1.593 5.229,1.593c2.162,0 3.299,-1.138 5.004,-5.231l3.07,0l0,26.724l-2.844,0c-3.979,-8.643 -6.025,-12.624 -10.918,-16.944c-4.89,-4.323 -10.349,-6.369 -15.69,-6.369c-13.19,0 -20.925,12.85 -20.925,36.39c0,11.714 1.707,20.697 5.458,26.952c3.979,6.597 8.866,9.895 17.628,9.895c8.072,0 10.916,-3.867 10.916,-9.667l0,-10.121c0,-5.912 -1.82,-7.847 -11.602,-8.413l0,-2.844l39.119,0l0.002,2.842l0,0z" fill="#828056"/>
     <path id="svg_11" d="m405.018,104.292l-66.521,0l0,-2.842c8.413,-0.91 10.007,-2.729 10.007,-8.644l0,-54.47c0,-5.801 -2.16,-7.621 -10.007,-8.075l0,-2.843l65.61,0l0,22.857l-2.841,0c-2.612,-15.239 -8.416,-18.99 -26.948,-18.99c-5.913,0 -7.396,1.819 -7.396,6.14l0,25.587c12.058,-0.113 17.062,-3.752 18.423,-16.943l2.957,0l0,38.438l-2.957,0c-1.136,-13.532 -6.023,-17.625 -18.423,-17.625l0,27.519c0,4.89 2.049,6.369 9.438,6.369c8.871,0 15.354,-1.706 20.696,-6.14c3.867,-3.186 5.911,-6.596 9.319,-13.988l3.184,0l-4.541,23.65z" fill="#828056"/>
     <path id="svg_12" d="m456.645,106.454c-23.541,0 -40.146,-16.603 -40.146,-40.142c0,-24.223 17.174,-40.599 40.827,-40.599c22.854,0 39.688,16.943 39.688,40.483c0.001,23.655 -16.83,40.258 -40.369,40.258zm-0.342,-76.99c-12.51,0 -19.674,13.419 -19.674,37.302c0,23.994 7.277,35.935 20.242,35.935c13.078,0 20.015,-12.282 20.015,-35.708c0,-24.221 -7.281,-37.529 -20.583,-37.529z" fill="#828056"/>
    </g>
   </g>
   <g id="svg_13">
    <path id="svg_14" d="m190.289,170.141l16.604,0l0,-1.739c-2.715,-0.188 -3.593,-1.295 -3.593,-4.444l0,-17.119c0,-6.164 -3.637,-9.989 -9.488,-9.989c-7.388,0 -10.766,6.13 -10.766,6.13c-1.393,-3.836 -4.569,-6.13 -9.006,-6.13c-7.78,0 -10.784,6.256 -10.784,6.256l0,-5.396l-13.371,0l0,1.32c3.229,0.473 4.027,1.444 4.027,4.789l0,19.926c0,3.021 -0.856,4.041 -3.955,4.637l0,1.764l16.748,0l0,-1.76c-2.384,-0.389 -3.234,-1.568 -3.234,-4.426l0,-17.23c0,-1.856 3.275,-5.065 6.255,-5.065c2.95,0 4.099,1.733 4.099,6.187l0,16.108c0,3.076 -0.827,4.185 -3.377,4.438l0,1.744l16.245,0l0,-1.752c-2.407,-0.33 -3.307,-1.552 -3.307,-4.435l0,-17.302c0,-0.794 1.159,-2.483 2.027,-3.151c1.441,-1.233 2.85,-1.842 4.301,-1.842c2.927,0 4.026,2.239 4.026,7.047l0,15.248c0,3.119 -0.812,4.187 -3.45,4.439l-0.001,1.747l0,0z" fill="#FFFFFF"/>
   </g>
   <g id="svg_15">
    <path id="svg_16" d="m227.213,170.141l16.821,0l0,-1.756c-2.607,-0.416 -3.453,-1.553 -3.453,-4.572l0,-26.105l-13.439,0l0,1.771c3.188,0.677 3.882,1.56 3.882,4.774l0,19.347c0,3.301 -0.505,3.963 -3.811,4.771l0,1.77zm8.627,-48.534c-3.115,0 -5.464,2.315 -5.464,5.392c0,3.031 2.288,5.315 5.319,5.315c3.074,0 5.391,-2.284 5.391,-5.315c0,-2.975 -2.353,-5.392 -5.246,-5.392z" fill="#FFFFFF"/>
   </g>
   <g id="svg_17">
    <path id="svg_18" d="m285.348,170.141l16.391,0l0,-1.744c-2.762,-0.254 -3.522,-1.258 -3.522,-4.512l0,-17.049c0,-6.068 -3.724,-9.99 -9.485,-9.99c-7.24,0 -10.498,6.256 -10.498,6.256l0,-5.395l-13.297,0l0,1.758c3.092,0.521 3.812,1.408 3.812,4.57l0,19.633c0,3.147 -0.72,4.061 -3.812,4.707l0,1.766l16.816,0l0,-1.754c-2.479,-0.389 -3.451,-1.668 -3.451,-4.502l0,-17.156c0,-1.229 0.693,-1.967 1.286,-2.559c1.644,-1.644 3.438,-2.51 5.188,-2.51c2.578,0 3.883,1.733 3.883,5.934l0,16.291c0,2.924 -0.897,4.164 -3.305,4.504l0,1.752l-0.006,0z" fill="#FFFFFF"/>
   </g>
   <g id="svg_19">
    <path id="svg_20" d="m321.913,170.141l16.821,0l0,-1.756c-2.608,-0.416 -3.451,-1.553 -3.451,-4.572l0,-26.105l-13.443,0l0,1.771c3.188,0.677 3.884,1.56 3.884,4.774l0,19.347c0,3.301 -0.505,3.963 -3.811,4.771l0,1.77zm8.625,-48.534c-3.115,0 -5.462,2.315 -5.462,5.392c0,3.031 2.286,5.315 5.315,5.315c3.072,0 5.395,-2.284 5.395,-5.315c0,-2.975 -2.353,-5.392 -5.248,-5.392z" fill="#FFFFFF"/>
   </g>
  </g>
  <g id="svg_21">
   <g id="svg_22">
    <path id="svg_23" d="m5.521,269.797l1.808,2.488l-1.079,0l-1.668,-2.393l-0.158,0l0,2.393l-0.882,0l0,-5.842l1.033,0c0.771,0 1.329,0.146 1.672,0.438c0.378,0.322 0.568,0.748 0.568,1.277c0,0.414 -0.119,0.77 -0.356,1.064s-0.55,0.491 -0.938,0.575zm-1.097,-0.67l0.279,0c0.835,0 1.252,-0.318 1.252,-0.957c0,-0.598 -0.406,-0.896 -1.218,-0.896l-0.313,0l0,1.853z" fill="#FFFFFF"/>
    <path id="svg_24" d="m11.738,267.273l-2.341,0l0,1.403l2.273,0l0,0.828l-2.273,0l0,1.953l2.341,0l0,0.826l-3.222,0l0,-5.841l3.223,0l-0.001,0.831l0,0z" fill="#FFFFFF"/>
    <path id="svg_25" d="m13.5,266.446l1.615,4.047l1.638,-4.047l0.964,0l-2.621,6.278l-2.561,-6.278l0.965,0l0,0z" fill="#FFFFFF"/>
    <path id="svg_26" d="m18.463,269.338c0,-0.82 0.301,-1.527 0.904,-2.117c0.6,-0.59 1.321,-0.885 2.164,-0.885c0.832,0 1.545,0.297 2.141,0.893c0.598,0.596 0.896,1.311 0.896,2.145c0,0.84 -0.3,1.553 -0.9,2.137c-0.603,0.591 -1.33,0.884 -2.182,0.884c-0.754,0 -1.431,-0.263 -2.031,-0.782c-0.663,-0.581 -0.992,-1.34 -0.992,-2.275zm0.889,0.012c0,0.646 0.217,1.178 0.65,1.594c0.431,0.416 0.929,0.623 1.494,0.623c0.613,0 1.13,-0.211 1.551,-0.635c0.421,-0.428 0.632,-0.95 0.632,-1.566c0,-0.621 -0.208,-1.145 -0.624,-1.564c-0.414,-0.424 -0.926,-0.637 -1.536,-0.637c-0.608,0 -1.121,0.213 -1.54,0.637c-0.418,0.417 -0.627,0.932 -0.627,1.548z" fill="#FFFFFF"/>
    <path id="svg_27" d="m26.867,266.446l0,5.012l1.717,0l0,0.828l-2.599,0l0,-5.84l0.882,0z" fill="#FFFFFF"/>
    <path id="svg_28" d="m30.611,266.446l0,3.518c0,0.502 0.082,0.869 0.246,1.104c0.245,0.335 0.589,0.502 1.033,0.502c0.446,0 0.792,-0.167 1.036,-0.502c0.164,-0.227 0.246,-0.592 0.246,-1.104l0,-3.518l0.882,0l0,3.76c0,0.615 -0.192,1.123 -0.575,1.521c-0.432,0.443 -0.961,0.665 -1.589,0.665s-1.156,-0.222 -1.585,-0.665c-0.383,-0.396 -0.575,-0.902 -0.575,-1.521l0,-3.76l0.881,0z" fill="#FFFFFF"/>
    <path id="svg_29" d="m37.374,267.273l0,5.013l-0.881,0l0,-5.013l-1.343,0l0,-0.827l3.563,0l0,0.827l-1.339,0z" fill="#FFFFFF"/>
    <path id="svg_30" d="m40.69,266.446l0,5.84l-0.88,0l0,-5.84l0.88,0z" fill="#FFFFFF"/>
    <path id="svg_31" d="m42.113,269.338c0,-0.82 0.301,-1.527 0.904,-2.117c0.6,-0.59 1.321,-0.885 2.164,-0.885c0.832,0 1.545,0.297 2.14,0.893c0.598,0.596 0.897,1.311 0.897,2.145c0,0.84 -0.3,1.553 -0.9,2.137c-0.603,0.591 -1.33,0.884 -2.182,0.884c-0.754,0 -1.431,-0.263 -2.032,-0.782c-0.661,-0.581 -0.991,-1.34 -0.991,-2.275zm0.889,0.012c0,0.646 0.216,1.178 0.65,1.594c0.431,0.416 0.929,0.623 1.494,0.623c0.612,0 1.13,-0.211 1.55,-0.635c0.421,-0.428 0.632,-0.95 0.632,-1.566c0,-0.621 -0.208,-1.145 -0.624,-1.564c-0.414,-0.424 -0.926,-0.637 -1.536,-0.637c-0.608,0 -1.121,0.213 -1.54,0.637c-0.417,0.417 -0.626,0.932 -0.626,1.548z" fill="#FFFFFF"/>
    <path id="svg_32" d="m49.636,272.286l0,-6.236l4.258,4.455l0,-4.059l0.882,0l0,6.194l-4.259,-4.442l0,4.088l-0.881,0z" fill="#FFFFFF"/>
    <path id="svg_33" d="m59.915,270.868l-2.5,0l-0.651,1.418l-0.95,0l2.89,-6.207l2.788,6.207l-0.964,0l-0.613,-1.418zm-0.359,-0.828l-0.866,-1.984l-0.908,1.984l1.774,0z" fill="#FFFFFF"/>
    <path id="svg_34" d="m64.511,269.797l1.808,2.488l-1.078,0l-1.668,-2.393l-0.159,0l0,2.393l-0.881,0l0,-5.842l1.033,0c0.771,0 1.329,0.146 1.672,0.438c0.378,0.322 0.567,0.748 0.567,1.277c0,0.414 -0.118,0.77 -0.355,1.064c-0.237,0.3 -0.551,0.491 -0.939,0.575zm-1.097,-0.67l0.28,0c0.835,0 1.252,-0.318 1.252,-0.957c0,-0.598 -0.406,-0.896 -1.218,-0.896l-0.314,0l0,1.853z" fill="#FFFFFF"/>
    <path id="svg_35" d="m68.686,269.764l-1.906,-3.316l1.014,0l1.335,2.332l1.339,-2.332l1.014,0l-1.914,3.316l0,2.521l-0.881,0l-0.001,-2.521l0,0z" fill="#FFFFFF"/>
    <path id="svg_36" d="m75.165,272.286l0,-6.236l4.258,4.455l0,-4.059l0.882,0l0,6.194l-4.259,-4.442l0,4.088l-0.881,0z" fill="#FFFFFF"/>
    <path id="svg_37" d="m85.237,267.273l-2.341,0l0,1.403l2.273,0l0,0.828l-2.273,0l0,1.953l2.341,0l0,0.826l-3.223,0l0,-5.841l3.223,0l0,0.831z" fill="#FFFFFF"/>
    <path id="svg_38" d="m86.413,269.338c0,-0.82 0.301,-1.527 0.904,-2.117c0.601,-0.59 1.321,-0.885 2.164,-0.885c0.832,0 1.546,0.297 2.141,0.893c0.598,0.596 0.896,1.311 0.896,2.145c0,0.84 -0.3,1.553 -0.9,2.137c-0.602,0.591 -1.33,0.884 -2.182,0.884c-0.754,0 -1.431,-0.263 -2.031,-0.782c-0.662,-0.581 -0.992,-1.34 -0.992,-2.275zm0.889,0.012c0,0.646 0.217,1.178 0.65,1.594c0.431,0.416 0.93,0.623 1.494,0.623c0.613,0 1.13,-0.211 1.551,-0.635c0.421,-0.428 0.632,-0.95 0.632,-1.566c0,-0.621 -0.208,-1.145 -0.624,-1.564c-0.414,-0.424 -0.926,-0.637 -1.536,-0.637c-0.608,0 -1.121,0.213 -1.539,0.637c-0.419,0.417 -0.628,0.932 -0.628,1.548z" fill="#FFFFFF"/>
    <path id="svg_39" d="m96.939,269.245l2.413,0l0,0.192c0,0.438 -0.052,0.827 -0.155,1.166c-0.101,0.312 -0.271,0.604 -0.51,0.877c-0.542,0.608 -1.232,0.914 -2.069,0.914c-0.817,0 -1.517,-0.295 -2.099,-0.886c-0.583,-0.592 -0.874,-1.303 -0.874,-2.133c0,-0.849 0.296,-1.565 0.889,-2.156c0.593,-0.592 1.314,-0.889 2.164,-0.889c0.457,0 0.882,0.094 1.278,0.278c0.378,0.188 0.75,0.489 1.116,0.907l-0.627,0.604c-0.479,-0.64 -1.063,-0.957 -1.751,-0.957c-0.618,0 -1.136,0.213 -1.555,0.639c-0.418,0.421 -0.627,0.943 -0.627,1.574c0,0.648 0.233,1.188 0.7,1.605c0.436,0.393 0.908,0.586 1.418,0.586c0.434,0 0.823,-0.146 1.168,-0.438c0.346,-0.297 0.539,-0.646 0.579,-1.062l-1.456,0l0,-0.825l-0.002,0l0,0.004z" fill="#FFFFFF"/>
    <path id="svg_40" d="m103.993,267.273l-2.341,0l0,1.403l2.273,0l0,0.828l-2.273,0l0,1.953l2.341,0l0,0.826l-3.223,0l0,-5.841l3.223,0l0,0.831z" fill="#FFFFFF"/>
    <path id="svg_41" d="m105.169,269.338c0,-0.82 0.301,-1.527 0.904,-2.117c0.6,-0.59 1.321,-0.885 2.164,-0.885c0.832,0 1.546,0.297 2.141,0.893c0.597,0.596 0.896,1.311 0.896,2.145c0,0.84 -0.3,1.553 -0.9,2.137c-0.602,0.591 -1.33,0.884 -2.182,0.884c-0.754,0 -1.431,-0.263 -2.031,-0.782c-0.662,-0.581 -0.992,-1.34 -0.992,-2.275zm0.889,0.012c0,0.646 0.217,1.178 0.65,1.594c0.431,0.416 0.929,0.623 1.494,0.623c0.613,0 1.13,-0.211 1.551,-0.635c0.421,-0.428 0.631,-0.95 0.631,-1.566c0,-0.621 -0.208,-1.145 -0.624,-1.564c-0.414,-0.424 -0.926,-0.637 -1.536,-0.637c-0.608,0 -1.121,0.213 -1.54,0.637c-0.417,0.417 -0.626,0.932 -0.626,1.548z" fill="#FFFFFF"/>
    <path id="svg_42" d="m115.188,272.286l1.229,-6.279l2.004,4.539l2.077,-4.539l1.104,6.279l-0.904,0l-0.563,-3.525l-1.729,3.797l-1.679,-3.801l-0.628,3.529l-0.911,0z" fill="#FFFFFF"/>
    <path id="svg_43" d="m124.031,266.446l0,5.84l-0.881,0l0,-5.84l0.881,0z" fill="#FFFFFF"/>
    <path id="svg_44" d="m125.744,272.286l0,-6.236l4.259,4.455l0,-4.059l0.881,0l0,6.194l-4.258,-4.442l0,4.088l-0.882,0z" fill="#FFFFFF"/>
    <path id="svg_45" d="m133.475,266.446l0,5.84l-0.881,0l0,-5.84l0.881,0z" fill="#FFFFFF"/>
    <path id="svg_46" d="m138.769,269.915l0,2.371l-0.881,0l0,-5.84l0.998,0c0.489,0 0.859,0.034 1.108,0.102c0.252,0.068 0.474,0.197 0.666,0.389c0.336,0.328 0.503,0.738 0.503,1.238c0,0.535 -0.178,0.957 -0.537,1.271c-0.358,0.312 -0.841,0.471 -1.449,0.471l-0.408,0l0,-0.002zm0,-0.817l0.329,0c0.81,0 1.214,-0.312 1.214,-0.936c0,-0.604 -0.417,-0.904 -1.252,-0.904l-0.292,0l0.001,1.84l0,0z" fill="#FFFFFF"/>
    <path id="svg_47" d="m145.812,270.868l-2.5,0l-0.651,1.418l-0.949,0l2.89,-6.207l2.788,6.207l-0.964,0l-0.614,-1.418zm-0.359,-0.828l-0.866,-1.984l-0.908,1.984l1.774,0z" fill="#FFFFFF"/>
    <path id="svg_48" d="m152.745,266.76l0,1.043c-0.51,-0.426 -1.036,-0.639 -1.581,-0.639c-0.601,0 -1.106,0.215 -1.517,0.646c-0.414,0.429 -0.62,0.954 -0.62,1.573c0,0.613 0.207,1.131 0.62,1.552c0.413,0.42 0.92,0.631 1.52,0.631c0.311,0 0.574,-0.049 0.791,-0.149c0.121,-0.051 0.246,-0.119 0.375,-0.205c0.131,-0.086 0.268,-0.188 0.411,-0.311l0,1.062c-0.504,0.283 -1.034,0.427 -1.589,0.427c-0.835,0 -1.547,-0.291 -2.137,-0.873c-0.587,-0.588 -0.881,-1.297 -0.881,-2.125c0,-0.744 0.246,-1.408 0.738,-1.989c0.604,-0.715 1.388,-1.07 2.349,-1.07c0.525,0 1.031,0.142 1.521,0.427z" fill="#FFFFFF"/>
    <path id="svg_49" d="m155.048,268.775l2.273,-2.329l1.176,0l-2.64,2.645l2.655,3.195l-1.18,0l-2.103,-2.599l-0.181,0.183l0,2.416l-0.882,0l0,-5.84l0.882,0l0,2.329z" fill="#FFFFFF"/>
    <path id="svg_50" d="m162.832,267.273l-2.341,0l0,1.403l2.273,0l0,0.828l-2.273,0l0,1.953l2.341,0l0,0.826l-3.223,0l0,-5.841l3.223,0l0,0.831z" fill="#FFFFFF"/>
    <path id="svg_51" d="m164.299,272.286l0,-5.84l1.226,0c0.587,0 1.052,0.059 1.392,0.174c0.366,0.113 0.697,0.307 0.995,0.578c0.602,0.551 0.904,1.272 0.904,2.168c0,0.897 -0.314,1.625 -0.942,2.18c-0.315,0.275 -0.645,0.471 -0.991,0.578c-0.322,0.107 -0.78,0.162 -1.373,0.162l-1.211,0zm0.882,-0.828l0.396,0c0.396,0 0.726,-0.041 0.988,-0.125c0.262,-0.088 0.499,-0.229 0.711,-0.42c0.434,-0.396 0.65,-0.912 0.65,-1.547c0,-0.642 -0.214,-1.16 -0.643,-1.56c-0.386,-0.354 -0.954,-0.533 -1.706,-0.533l-0.396,0l0,4.185z" fill="#FFFFFF"/>
    <path id="svg_52" d="m173.221,266.446l1.521,3.903l1.588,-4.188l1.521,4.188l1.615,-3.903l0.957,0l-2.61,6.211l-1.501,-4.14l-1.566,4.144l-2.481,-6.215l0.956,0z" fill="#FFFFFF"/>
    <path id="svg_53" d="m182.34,266.446l0,5.84l-0.881,0l0,-5.84l0.881,0z" fill="#FFFFFF"/>
    <path id="svg_54" d="m185.664,267.273l0,5.013l-0.881,0l0,-5.013l-1.343,0l0,-0.827l3.563,0l0,0.827l-1.339,0z" fill="#FFFFFF"/>
    <path id="svg_55" d="m188.981,268.73l2.519,0l0,-2.284l0.881,0l0,5.84l-0.881,0l0,-2.728l-2.519,0l0,2.728l-0.881,0l0,-5.84l0.881,0l0,2.284z" fill="#FFFFFF"/>
    <path id="svg_56" d="m199.912,270.655l0.621,0l0,0.803l-0.621,0l0,0.828l-0.881,0l0,-0.828l-2.867,0l3.748,-5.443l0,4.64zm-0.881,0l0,-1.955l-1.347,1.955l1.347,0z" fill="#FFFFFF"/>
    <path id="svg_57" d="m201.511,269.329c0,-0.933 0.216,-1.674 0.65,-2.229c0.389,-0.503 0.858,-0.753 1.411,-0.753c0.552,0 1.022,0.25 1.411,0.753c0.434,0.554 0.651,1.311 0.651,2.266c0,0.952 -0.217,1.707 -0.651,2.262c-0.389,0.502 -0.857,0.754 -1.407,0.754c-0.55,0 -1.021,-0.252 -1.415,-0.754c-0.433,-0.555 -0.65,-1.321 -0.65,-2.299zm0.866,0.004c0,0.646 0.113,1.188 0.337,1.615c0.225,0.42 0.511,0.631 0.859,0.631c0.345,0 0.631,-0.211 0.858,-0.631c0.227,-0.421 0.34,-0.947 0.34,-1.587c0,-0.638 -0.113,-1.168 -0.34,-1.588s-0.513,-0.629 -0.858,-0.629c-0.343,0 -0.628,0.209 -0.855,0.629c-0.227,0.416 -0.341,0.936 -0.341,1.56z" fill="#FFFFFF"/>
    <path id="svg_58" d="m212.676,269.245l2.413,0l0,0.192c0,0.438 -0.052,0.827 -0.155,1.166c-0.101,0.312 -0.271,0.604 -0.51,0.877c-0.542,0.608 -1.232,0.914 -2.069,0.914c-0.817,0 -1.516,-0.295 -2.099,-0.886c-0.583,-0.592 -0.874,-1.303 -0.874,-2.133c0,-0.849 0.296,-1.565 0.889,-2.156c0.593,-0.592 1.314,-0.889 2.164,-0.889c0.457,0 0.883,0.094 1.278,0.278c0.378,0.188 0.75,0.489 1.116,0.907l-0.627,0.604c-0.479,-0.64 -1.063,-0.957 -1.751,-0.957c-0.618,0 -1.136,0.213 -1.554,0.639c-0.419,0.421 -0.628,0.943 -0.628,1.574c0,0.648 0.233,1.188 0.7,1.605c0.436,0.393 0.909,0.586 1.418,0.586c0.434,0 0.823,-0.146 1.168,-0.438c0.345,-0.297 0.538,-0.646 0.579,-1.062l-1.456,0l0,-0.825l-0.002,0l0,0.004z" fill="#FFFFFF"/>
    <path id="svg_59" d="m219.938,270.868l-2.5,0l-0.65,1.418l-0.95,0l2.89,-6.207l2.788,6.207l-0.964,0l-0.614,-1.418zm-0.359,-0.828l-0.866,-1.984l-0.908,1.984l1.774,0z" fill="#FFFFFF"/>
    <path id="svg_60" d="m222.351,272.286l1.229,-6.279l2.005,4.539l2.077,-4.539l1.104,6.279l-0.904,0l-0.563,-3.525l-1.729,3.797l-1.679,-3.801l-0.628,3.529l-0.912,0z" fill="#FFFFFF"/>
    <path id="svg_61" d="m233.535,267.273l-2.341,0l0,1.403l2.273,0l0,0.828l-2.273,0l0,1.953l2.341,0l0,0.826l-3.222,0l0,-5.841l3.222,0l0,0.831z" fill="#FFFFFF"/>
    <path id="svg_62" d="m238.304,267.315l-0.715,0.424c-0.133,-0.23 -0.261,-0.383 -0.381,-0.453c-0.126,-0.08 -0.289,-0.121 -0.488,-0.121c-0.245,0 -0.447,0.068 -0.609,0.209c-0.162,0.135 -0.242,0.309 -0.242,0.516c0,0.283 0.211,0.514 0.636,0.688l0.582,0.239c0.474,0.19 0.821,0.427 1.04,0.7c0.22,0.275 0.329,0.613 0.329,1.018c0,0.535 -0.179,0.979 -0.537,1.33c-0.36,0.354 -0.808,0.528 -1.342,0.528c-0.507,0 -0.926,-0.147 -1.256,-0.449c-0.325,-0.3 -0.528,-0.724 -0.609,-1.269l0.893,-0.195c0.041,0.344 0.11,0.579 0.212,0.711c0.181,0.253 0.446,0.378 0.794,0.378c0.275,0 0.503,-0.092 0.684,-0.274c0.182,-0.186 0.272,-0.418 0.272,-0.698c0,-0.113 -0.016,-0.22 -0.047,-0.312c-0.032,-0.095 -0.081,-0.182 -0.148,-0.262c-0.066,-0.08 -0.152,-0.15 -0.258,-0.225c-0.106,-0.067 -0.232,-0.135 -0.378,-0.196l-0.563,-0.233c-0.799,-0.34 -1.199,-0.832 -1.199,-1.482c0,-0.438 0.167,-0.807 0.503,-1.102c0.335,-0.299 0.752,-0.445 1.252,-0.445c0.671,-0.007 1.197,0.321 1.575,0.975z" fill="#FFFFFF"/>
   </g>
   <g id="svg_63">
    <path id="svg_64" d="m244.035,269.338c0,-0.82 0.301,-1.527 0.904,-2.117c0.6,-0.59 1.321,-0.885 2.163,-0.885c0.832,0 1.546,0.297 2.141,0.893c0.598,0.596 0.896,1.311 0.896,2.145c0,0.84 -0.3,1.553 -0.9,2.137c-0.603,0.591 -1.33,0.884 -2.182,0.884c-0.754,0 -1.431,-0.263 -2.031,-0.782c-0.661,-0.581 -0.991,-1.34 -0.991,-2.275zm0.888,0.012c0,0.646 0.217,1.178 0.651,1.594c0.431,0.416 0.929,0.623 1.494,0.623c0.613,0 1.13,-0.211 1.551,-0.635c0.421,-0.428 0.632,-0.95 0.632,-1.566c0,-0.621 -0.208,-1.145 -0.624,-1.564c-0.414,-0.424 -0.926,-0.637 -1.536,-0.637c-0.608,0 -1.121,0.213 -1.539,0.637c-0.419,0.417 -0.629,0.932 -0.629,1.548z" fill="#FFFFFF"/>
    <path id="svg_65" d="m254.475,267.273l-2.036,0l0,1.403l1.961,0l0,0.828l-1.961,0l0,2.779l-0.881,0l0,-5.841l2.917,0l0,0.831l0,0z" fill="#FFFFFF"/>
    <path id="svg_66" d="m258.723,267.273l-2.035,0l0,1.403l1.963,0l0,0.828l-1.963,0l0,2.779l-0.883,0l0,-5.841l2.918,0l0,0.831z" fill="#FFFFFF"/>
    <path id="svg_67" d="m263.273,267.273l-2.34,0l0,1.403l2.271,0l0,0.828l-2.271,0l0,1.953l2.34,0l0,0.826l-3.225,0l0,-5.841l3.225,0l0,0.831z" fill="#FFFFFF"/>
    <path id="svg_68" d="m266.721,269.797l1.809,2.488l-1.076,0l-1.668,-2.393l-0.159,0l0,2.393l-0.882,0l0,-5.842l1.031,0c0.771,0 1.328,0.146 1.674,0.438c0.378,0.322 0.564,0.748 0.564,1.277c0,0.414 -0.117,0.77 -0.354,1.064c-0.239,0.301 -0.553,0.491 -0.939,0.575zm-1.098,-0.67l0.279,0c0.834,0 1.252,-0.318 1.252,-0.957c0,-0.598 -0.405,-0.896 -1.219,-0.896l-0.312,0l0,1.853l0,0z" fill="#FFFFFF"/>
    <path id="svg_69" d="m273.018,267.315l-0.716,0.424c-0.133,-0.23 -0.26,-0.383 -0.381,-0.453c-0.126,-0.08 -0.289,-0.121 -0.487,-0.121c-0.244,0 -0.447,0.068 -0.607,0.209c-0.161,0.135 -0.241,0.309 -0.241,0.516c0,0.283 0.212,0.514 0.636,0.688l0.582,0.239c0.477,0.19 0.82,0.427 1.04,0.7c0.222,0.275 0.329,0.613 0.329,1.018c0,0.535 -0.179,0.979 -0.537,1.33c-0.359,0.354 -0.809,0.528 -1.343,0.528c-0.507,0 -0.926,-0.147 -1.256,-0.449c-0.325,-0.3 -0.528,-0.724 -0.608,-1.269l0.895,-0.195c0.041,0.344 0.111,0.579 0.211,0.711c0.183,0.253 0.447,0.378 0.796,0.378c0.274,0 0.503,-0.092 0.685,-0.274c0.182,-0.186 0.272,-0.418 0.272,-0.698c0,-0.113 -0.017,-0.22 -0.048,-0.312c-0.031,-0.094 -0.082,-0.182 -0.147,-0.262s-0.151,-0.15 -0.259,-0.225c-0.105,-0.067 -0.23,-0.135 -0.378,-0.196l-0.563,-0.233c-0.8,-0.34 -1.199,-0.832 -1.199,-1.482c0,-0.438 0.168,-0.807 0.504,-1.102c0.337,-0.299 0.753,-0.445 1.253,-0.445c0.662,-0.007 1.19,0.321 1.567,0.975z" fill="#FFFFFF"/>
    <path id="svg_70" d="m280.673,270.868l-2.5,0l-0.649,1.418l-0.948,0l2.89,-6.207l2.788,6.207l-0.965,0l-0.616,-1.418zm-0.361,-0.828l-0.867,-1.984l-0.905,1.984l1.772,0z" fill="#FFFFFF"/>
    <path id="svg_71" d="m283.289,272.286l0,-6.236l4.259,4.455l0,-4.059l0.882,0l0,6.194l-4.259,-4.442l0,4.088l-0.882,0z" fill="#FFFFFF"/>
    <path id="svg_72" d="m296.271,270.868l-2.5,0l-0.651,1.418l-0.949,0l2.89,-6.207l2.787,6.207l-0.965,0l-0.612,-1.418zm-0.36,-0.828l-0.867,-1.984l-0.907,1.984l1.774,0z" fill="#FFFFFF"/>
    <path id="svg_73" d="m299.769,266.446l0,3.518c0,0.502 0.082,0.869 0.246,1.104c0.244,0.335 0.589,0.502 1.032,0.502c0.446,0 0.792,-0.167 1.036,-0.502c0.164,-0.227 0.246,-0.592 0.246,-1.104l0,-3.518l0.881,0l0,3.76c0,0.615 -0.188,1.123 -0.574,1.521c-0.432,0.443 -0.961,0.665 -1.589,0.665s-1.155,-0.222 -1.585,-0.665c-0.383,-0.396 -0.574,-0.902 -0.574,-1.521l0,-3.76l0.881,0z" fill="#FFFFFF"/>
    <path id="svg_74" d="m306.53,267.273l0,5.013l-0.881,0l0,-5.013l-1.346,0l0,-0.827l3.563,0l0,0.827l-1.336,0z" fill="#FFFFFF"/>
    <path id="svg_75" d="m309.848,268.73l2.521,0l0,-2.284l0.881,0l0,5.84l-0.881,0l0,-2.728l-2.521,0l0,2.728l-0.882,0l0,-5.84l0.882,0l0,2.284z" fill="#FFFFFF"/>
    <path id="svg_76" d="m318.18,267.273l-2.341,0l0,1.403l2.273,0l0,0.828l-2.273,0l0,1.953l2.341,0l0,0.826l-3.222,0l0,-5.841l3.222,0l0,0.831z" fill="#FFFFFF"/>
    <path id="svg_77" d="m321.259,267.273l0,5.013l-0.882,0l0,-5.013l-1.343,0l0,-0.827l3.562,0l0,0.827l-1.337,0z" fill="#FFFFFF"/>
    <path id="svg_78" d="m324.575,266.446l0,5.84l-0.881,0l0,-5.84l0.881,0z" fill="#FFFFFF"/>
    <path id="svg_79" d="m330.604,266.76l0,1.043c-0.51,-0.426 -1.034,-0.639 -1.579,-0.639c-0.603,0 -1.105,0.215 -1.519,0.646c-0.414,0.429 -0.621,0.954 -0.621,1.573c0,0.613 0.207,1.131 0.621,1.552c0.413,0.42 0.92,0.631 1.521,0.631c0.311,0 0.571,-0.049 0.791,-0.149c0.118,-0.051 0.243,-0.119 0.376,-0.205c0.13,-0.086 0.267,-0.188 0.408,-0.311l0,1.062c-0.504,0.283 -1.031,0.427 -1.589,0.427c-0.835,0 -1.548,-0.291 -2.138,-0.873c-0.587,-0.588 -0.881,-1.297 -0.881,-2.125c0,-0.744 0.246,-1.408 0.738,-1.989c0.604,-0.715 1.388,-1.07 2.348,-1.07c0.528,0 1.035,0.142 1.524,0.427z" fill="#FFFFFF"/>
    <path id="svg_80" d="m338.157,270.868l-2.5,0l-0.65,1.418l-0.95,0l2.893,-6.207l2.788,6.207l-0.964,0l-0.617,-1.418zm-0.359,-0.828l-0.866,-1.984l-0.905,1.984l1.771,0z" fill="#FFFFFF"/>
    <path id="svg_81" d="m342.753,269.797l1.808,2.488l-1.075,0l-1.668,-2.393l-0.159,0l0,2.393l-0.881,0l0,-5.842l1.03,0c0.771,0 1.328,0.146 1.675,0.438c0.377,0.322 0.563,0.748 0.563,1.277c0,0.414 -0.118,0.77 -0.354,1.064c-0.238,0.301 -0.55,0.491 -0.939,0.575zm-1.098,-0.67l0.277,0c0.835,0 1.253,-0.318 1.253,-0.957c0,-0.598 -0.403,-0.896 -1.219,-0.896l-0.312,0l0,1.853l0.001,0z" fill="#FFFFFF"/>
    <path id="svg_82" d="m350.062,266.76l0,1.043c-0.512,-0.426 -1.036,-0.639 -1.58,-0.639c-0.604,0 -1.106,0.215 -1.52,0.646c-0.414,0.429 -0.621,0.954 -0.621,1.573c0,0.613 0.207,1.131 0.621,1.552c0.413,0.42 0.92,0.631 1.521,0.631c0.311,0 0.571,-0.049 0.791,-0.149c0.119,-0.051 0.244,-0.119 0.377,-0.205c0.13,-0.086 0.267,-0.188 0.408,-0.311l0,1.062c-0.505,0.283 -1.032,0.427 -1.59,0.427c-0.835,0 -1.547,-0.291 -2.137,-0.873c-0.588,-0.588 -0.882,-1.297 -0.882,-2.125c0,-0.744 0.246,-1.408 0.738,-1.989c0.604,-0.715 1.388,-1.07 2.349,-1.07c0.53,0 1.037,0.142 1.525,0.427z" fill="#FFFFFF"/>
    <path id="svg_83" d="m354.915,270.868l-2.5,0l-0.65,1.418l-0.946,0l2.891,-6.207l2.787,6.207l-0.965,0l-0.617,-1.418zm-0.359,-0.828l-0.862,-1.984l-0.908,1.984l1.77,0z" fill="#FFFFFF"/>
    <path id="svg_84" d="m357.532,272.286l0,-5.84l1.227,0c0.588,0 1.051,0.059 1.395,0.174c0.363,0.113 0.694,0.307 0.995,0.578c0.603,0.551 0.901,1.272 0.901,2.168c0,0.897 -0.312,1.625 -0.939,2.18c-0.315,0.275 -0.646,0.471 -0.991,0.578c-0.322,0.107 -0.78,0.162 -1.373,0.162l-1.215,0zm0.883,-0.828l0.396,0c0.396,0 0.728,-0.041 0.987,-0.125c0.263,-0.088 0.499,-0.229 0.711,-0.42c0.437,-0.396 0.65,-0.912 0.65,-1.547c0,-0.642 -0.214,-1.16 -0.646,-1.56c-0.385,-0.354 -0.953,-0.533 -1.705,-0.533l-0.396,0l0.003,4.185l0,0z" fill="#FFFFFF"/>
    <path id="svg_85" d="m366.689,267.273l-2.344,0l0,1.403l2.273,0l0,0.828l-2.273,0l0,1.953l2.344,0l0,0.826l-3.225,0l0,-5.841l3.225,0l0,0.831z" fill="#FFFFFF"/>
    <path id="svg_86" d="m374.08,267.273l-2.341,0l0,1.403l2.271,0l0,0.828l-2.271,0l0,1.953l2.341,0l0,0.826l-3.223,0l0,-5.841l3.223,0l0,0.831z" fill="#FFFFFF"/>
    <path id="svg_87" d="m376.769,269.233l-1.604,-2.787l1.003,0l1.116,1.979l1.172,-1.979l1.01,0l-1.683,2.787l1.766,3.053l-0.987,0l-1.293,-2.234l-1.332,2.234l-0.996,0l1.828,-3.053z" fill="#FFFFFF"/>
    <path id="svg_88" d="m381.522,269.915l0,2.371l-0.884,0l0,-5.84l0.998,0c0.49,0 0.859,0.034 1.109,0.102c0.252,0.068 0.474,0.197 0.666,0.389c0.334,0.328 0.502,0.738 0.502,1.238c0,0.535 -0.179,0.957 -0.537,1.271c-0.355,0.312 -0.84,0.471 -1.448,0.471l-0.406,0l0,-0.002zm0,-0.817l0.327,0c0.812,0 1.217,-0.312 1.217,-0.936c0,-0.604 -0.417,-0.904 -1.252,-0.904l-0.293,0l0.001,1.84l0,0z" fill="#FFFFFF"/>
    <path id="svg_89" d="m388.356,267.273l-2.343,0l0,1.403l2.272,0l0,0.828l-2.272,0l0,1.953l2.343,0l0,0.826l-3.226,0l0,-5.841l3.226,0l0,0.831z" fill="#FFFFFF"/>
    <path id="svg_90" d="m391.804,269.797l1.81,2.488l-1.078,0l-1.667,-2.393l-0.159,0l0,2.393l-0.881,0l0,-5.842l1.032,0c0.771,0 1.329,0.146 1.672,0.438c0.378,0.322 0.564,0.748 0.564,1.277c0,0.414 -0.118,0.77 -0.354,1.064c-0.238,0.3 -0.551,0.491 -0.939,0.575zm-1.098,-0.67l0.279,0c0.836,0 1.252,-0.318 1.252,-0.957c0,-0.598 -0.405,-0.896 -1.22,-0.896l-0.312,0l0,1.853l0.001,0z" fill="#FFFFFF"/>
    <path id="svg_91" d="m395.679,266.446l0,5.84l-0.881,0l0,-5.84l0.881,0z" fill="#FFFFFF"/>
    <path id="svg_92" d="m400.615,267.273l-2.341,0l0,1.403l2.271,0l0,0.828l-2.271,0l0,1.953l2.341,0l0,0.826l-3.225,0l0,-5.841l3.225,0l0,0.831z" fill="#FFFFFF"/>
    <path id="svg_93" d="m402.081,272.286l0,-6.236l4.255,4.455l0,-4.059l0.882,0l0,6.194l-4.257,-4.442l0,4.088l-0.88,0z" fill="#FFFFFF"/>
    <path id="svg_94" d="m413.243,266.76l0,1.043c-0.51,-0.426 -1.036,-0.639 -1.581,-0.639c-0.602,0 -1.105,0.215 -1.518,0.646c-0.412,0.429 -0.619,0.954 -0.619,1.573c0,0.613 0.207,1.131 0.619,1.552c0.411,0.42 0.921,0.631 1.521,0.631c0.311,0 0.574,-0.049 0.79,-0.149c0.121,-0.051 0.247,-0.119 0.376,-0.205c0.131,-0.086 0.268,-0.188 0.411,-0.311l0,1.062c-0.505,0.283 -1.034,0.427 -1.589,0.427c-0.834,0 -1.547,-0.291 -2.139,-0.873c-0.589,-0.588 -0.882,-1.297 -0.882,-2.125c0,-0.744 0.245,-1.408 0.736,-1.989c0.604,-0.715 1.389,-1.07 2.35,-1.07c0.529,0 1.036,0.142 1.525,0.427z" fill="#FFFFFF"/>
    <path id="svg_95" d="m417.888,267.273l-2.342,0l0,1.403l2.273,0l0,0.828l-2.273,0l0,1.953l2.342,0l0,0.826l-3.224,0l0,-5.841l3.224,0l0,0.831z" fill="#FFFFFF"/>
    <path id="svg_96" d="m422.055,272.286l0,-5.84l0.877,0c0.395,0 0.703,0.029 0.938,0.092c0.231,0.062 0.432,0.162 0.594,0.309c0.163,0.146 0.293,0.33 0.39,0.555c0.101,0.227 0.147,0.451 0.147,0.684c0,0.418 -0.16,0.771 -0.479,1.062c0.312,0.104 0.556,0.291 0.731,0.558c0.183,0.262 0.272,0.565 0.272,0.914c0,0.457 -0.162,0.844 -0.484,1.157c-0.193,0.192 -0.412,0.328 -0.654,0.403c-0.265,0.072 -0.597,0.109 -0.994,0.109l-1.338,0l0,-0.003zm0.881,-3.332l0.277,0c0.328,0 0.567,-0.072 0.72,-0.219c0.153,-0.145 0.229,-0.357 0.229,-0.643c0,-0.272 -0.078,-0.481 -0.234,-0.623c-0.156,-0.145 -0.384,-0.215 -0.682,-0.215l-0.312,0l0.002,1.7l0,0zm0,2.504l0.548,0c0.396,0 0.688,-0.078 0.878,-0.232c0.193,-0.169 0.295,-0.385 0.295,-0.645c0,-0.254 -0.098,-0.465 -0.284,-0.637c-0.187,-0.169 -0.513,-0.253 -0.986,-0.253l-0.444,0l0,1.767l-0.007,0z" fill="#FFFFFF"/>
    <path id="svg_97" d="m426.654,269.338c0,-0.82 0.301,-1.527 0.9,-2.117c0.603,-0.59 1.321,-0.885 2.163,-0.885c0.833,0 1.547,0.297 2.144,0.893c0.598,0.596 0.896,1.311 0.896,2.145c0,0.84 -0.299,1.553 -0.896,2.137c-0.604,0.591 -1.331,0.884 -2.186,0.884c-0.754,0 -1.431,-0.263 -2.031,-0.782c-0.66,-0.581 -0.99,-1.34 -0.99,-2.275zm0.889,0.012c0,0.646 0.217,1.178 0.65,1.594c0.432,0.416 0.93,0.623 1.494,0.623c0.609,0 1.129,-0.211 1.551,-0.635c0.42,-0.428 0.631,-0.95 0.631,-1.566c0,-0.621 -0.207,-1.145 -0.623,-1.564c-0.414,-0.424 -0.926,-0.637 -1.536,-0.637c-0.608,0 -1.12,0.213 -1.54,0.637c-0.418,0.417 -0.627,0.932 -0.627,1.548z" fill="#FFFFFF"/>
    <path id="svg_98" d="m435.789,267.273l0,5.013l-0.883,0l0,-5.013l-1.342,0l0,-0.827l3.562,0l0,0.827l-1.337,0z" fill="#FFFFFF"/>
    <path id="svg_99" d="m439.105,268.73l2.519,0l0,-2.284l0.882,0l0,5.84l-0.882,0l0,-2.728l-2.519,0l0,2.728l-0.886,0l0,-5.84l0.886,0l0,2.284z" fill="#FFFFFF"/>
    <path id="svg_100" d="m446.623,269.338c0,-0.82 0.303,-1.527 0.904,-2.117c0.6,-0.59 1.318,-0.885 2.164,-0.885c0.832,0 1.545,0.297 2.141,0.893c0.598,0.596 0.896,1.311 0.896,2.145c0,0.84 -0.3,1.553 -0.897,2.137c-0.604,0.591 -1.33,0.884 -2.186,0.884c-0.753,0 -1.431,-0.263 -2.027,-0.782c-0.665,-0.581 -0.995,-1.34 -0.995,-2.275zm0.889,0.012c0,0.646 0.217,1.178 0.651,1.594c0.431,0.416 0.929,0.623 1.493,0.623c0.613,0 1.131,-0.211 1.552,-0.635c0.421,-0.428 0.632,-0.95 0.632,-1.566c0,-0.621 -0.209,-1.145 -0.625,-1.564c-0.412,-0.424 -0.925,-0.637 -1.535,-0.637c-0.604,0 -1.121,0.213 -1.539,0.637c-0.42,0.417 -0.629,0.932 -0.629,1.548z" fill="#FFFFFF"/>
    <path id="svg_101" d="m454.146,272.286l0,-6.236l4.26,4.455l0,-4.059l0.881,0l0,6.194l-4.26,-4.442l0,4.088l-0.881,0z" fill="#FFFFFF"/>
    <path id="svg_102" d="m465.308,267.273l0,5.013l-0.881,0l0,-5.013l-1.343,0l0,-0.827l3.562,0l0,0.827l-1.338,0z" fill="#FFFFFF"/>
    <path id="svg_103" d="m468.625,268.73l2.52,0l0,-2.284l0.884,0l0,5.84l-0.884,0l0,-2.728l-2.52,0l0,2.728l-0.882,0l0,-5.84l0.882,0l0,2.284z" fill="#FFFFFF"/>
    <path id="svg_104" d="m476.957,267.273l-2.342,0l0,1.403l2.271,0l0,0.828l-2.271,0l0,1.953l2.342,0l0,0.826l-3.223,0l0,-5.841l3.223,0l0,0.831z" fill="#FFFFFF"/>
    <path id="svg_105" d="m484.127,269.245l2.414,0l0,0.192c0,0.438 -0.053,0.827 -0.156,1.166c-0.1,0.312 -0.271,0.604 -0.51,0.877c-0.542,0.608 -1.232,0.914 -2.069,0.914c-0.814,0 -1.517,-0.295 -2.099,-0.886c-0.583,-0.592 -0.874,-1.303 -0.874,-2.133c0,-0.849 0.296,-1.565 0.889,-2.156c0.596,-0.592 1.313,-0.889 2.163,-0.889c0.457,0 0.883,0.094 1.279,0.278c0.378,0.188 0.75,0.489 1.115,0.907l-0.627,0.604c-0.48,-0.64 -1.063,-0.957 -1.752,-0.957c-0.617,0 -1.139,0.213 -1.558,0.639c-0.418,0.421 -0.627,0.943 -0.627,1.574c0,0.648 0.232,1.188 0.699,1.605c0.436,0.393 0.908,0.586 1.418,0.586c0.434,0 0.824,-0.146 1.169,-0.438c0.345,-0.297 0.538,-0.646 0.579,-1.062l-1.457,0l0.004,-0.821l0,0z" fill="#FFFFFF"/>
    <path id="svg_106" d="m487.668,269.338c0,-0.82 0.301,-1.527 0.904,-2.117c0.6,-0.59 1.317,-0.885 2.163,-0.885c0.832,0 1.546,0.297 2.141,0.893c0.598,0.596 0.896,1.311 0.896,2.145c0,0.84 -0.3,1.553 -0.897,2.137c-0.604,0.591 -1.33,0.884 -2.185,0.884c-0.755,0 -1.432,-0.263 -2.029,-0.782c-0.663,-0.581 -0.993,-1.34 -0.993,-2.275zm0.889,0.012c0,0.646 0.22,1.178 0.65,1.594s0.93,0.623 1.494,0.623c0.613,0 1.13,-0.211 1.551,-0.635c0.421,-0.428 0.631,-0.95 0.631,-1.566c0,-0.621 -0.207,-1.145 -0.623,-1.564c-0.414,-0.424 -0.926,-0.637 -1.535,-0.637c-0.606,0 -1.121,0.213 -1.541,0.637c-0.418,0.417 -0.627,0.932 -0.627,1.548z" fill="#FFFFFF"/>
   </g>
   <g id="svg_107">
    <g id="svg_108">
     <path id="svg_109" d="m251.636,280.002l0,5.012l1.718,0l0,0.828l-2.6,0l0,-5.84l0.882,0z" fill="#FFFFFF"/>
     <path id="svg_110" d="m258.814,280.316l0,1.043c-0.51,-0.426 -1.037,-0.64 -1.58,-0.64c-0.604,0 -1.106,0.216 -1.52,0.646c-0.414,0.428 -0.619,0.951 -0.619,1.571c0,0.61 0.205,1.13 0.619,1.554c0.413,0.42 0.922,0.631 1.521,0.631c0.312,0 0.574,-0.049 0.791,-0.15c0.121,-0.051 0.246,-0.118 0.377,-0.204c0.13,-0.086 0.267,-0.188 0.41,-0.312l0,1.062c-0.504,0.282 -1.032,0.427 -1.588,0.427c-0.836,0 -1.547,-0.291 -2.141,-0.871c-0.586,-0.59 -0.88,-1.299 -0.88,-2.129c0,-0.742 0.246,-1.404 0.735,-1.986c0.604,-0.715 1.391,-1.07 2.351,-1.07c0.528,0.001 1.036,0.144 1.524,0.428z" fill="#FFFFFF"/>
     <path id="svg_111" d="m260.236,285.842l0,-5.84l1.226,0c0.588,0 1.054,0.057 1.394,0.174c0.365,0.113 0.697,0.307 0.994,0.578c0.604,0.55 0.903,1.271 0.903,2.168c0,0.896 -0.313,1.623 -0.94,2.178c-0.313,0.277 -0.646,0.471 -0.992,0.58c-0.32,0.107 -0.777,0.162 -1.37,0.162l-1.215,0zm0.882,-0.828l0.396,0c0.396,0 0.729,-0.042 0.988,-0.125c0.262,-0.088 0.498,-0.229 0.711,-0.42c0.434,-0.396 0.65,-0.912 0.65,-1.547c0,-0.641 -0.215,-1.162 -0.643,-1.559c-0.39,-0.355 -0.955,-0.533 -1.707,-0.533l-0.396,0l0.001,4.184l0,0z" fill="#FFFFFF"/>
     <path id="svg_112" d="m272.173,280.872l-0.715,0.424c-0.133,-0.23 -0.26,-0.383 -0.381,-0.453c-0.127,-0.082 -0.289,-0.119 -0.488,-0.119c-0.245,0 -0.446,0.066 -0.608,0.207c-0.162,0.137 -0.242,0.311 -0.242,0.516c0,0.283 0.214,0.516 0.638,0.688l0.583,0.238c0.475,0.19 0.818,0.426 1.039,0.701c0.221,0.276 0.33,0.614 0.33,1.016c0,0.537 -0.182,0.98 -0.537,1.332c-0.359,0.354 -0.811,0.529 -1.346,0.529c-0.506,0 -0.926,-0.15 -1.256,-0.449c-0.322,-0.301 -0.525,-0.724 -0.606,-1.269l0.896,-0.196c0.041,0.344 0.107,0.58 0.211,0.711c0.183,0.254 0.444,0.379 0.795,0.379c0.272,0 0.504,-0.092 0.685,-0.273c0.183,-0.188 0.272,-0.418 0.272,-0.701c0,-0.111 -0.018,-0.217 -0.047,-0.312c-0.033,-0.094 -0.082,-0.182 -0.147,-0.26c-0.065,-0.08 -0.152,-0.154 -0.259,-0.226c-0.106,-0.067 -0.232,-0.138 -0.379,-0.198l-0.563,-0.232c-0.799,-0.338 -1.198,-0.832 -1.198,-1.481c0,-0.438 0.168,-0.808 0.504,-1.103c0.334,-0.297 0.752,-0.444 1.252,-0.444c0.664,-0.008 1.19,0.32 1.567,0.975z" fill="#FFFFFF"/>
     <path id="svg_113" d="m278.014,280.316l0,1.043c-0.511,-0.426 -1.037,-0.64 -1.58,-0.64c-0.603,0 -1.104,0.216 -1.519,0.646c-0.413,0.428 -0.62,0.951 -0.62,1.571c0,0.61 0.207,1.13 0.62,1.554c0.414,0.42 0.92,0.631 1.521,0.631c0.312,0 0.574,-0.049 0.791,-0.15c0.121,-0.051 0.246,-0.118 0.377,-0.204s0.269,-0.188 0.41,-0.312l0,1.062c-0.505,0.282 -1.033,0.427 -1.589,0.427c-0.836,0 -1.547,-0.291 -2.137,-0.871c-0.588,-0.59 -0.883,-1.299 -0.883,-2.129c0,-0.742 0.245,-1.404 0.737,-1.986c0.604,-0.715 1.39,-1.07 2.351,-1.07c0.525,0.001 1.03,0.144 1.521,0.428z" fill="#FFFFFF"/>
     <path id="svg_114" d="m281.413,283.353l1.81,2.489l-1.078,0l-1.668,-2.391l-0.16,0l0,2.391l-0.881,0l0,-5.84l1.032,0c0.771,0 1.328,0.145 1.673,0.435c0.377,0.323 0.565,0.749 0.565,1.278c0,0.414 -0.117,0.77 -0.354,1.066c-0.238,0.3 -0.55,0.489 -0.939,0.572zm-1.097,-0.669l0.279,0c0.834,0 1.252,-0.318 1.252,-0.957c0,-0.598 -0.406,-0.896 -1.221,-0.896l-0.312,0l0,1.854l0.002,0l0,-0.001z" fill="#FFFFFF"/>
     <path id="svg_115" d="m287.632,280.831l-2.342,0l0,1.402l2.272,0l0,0.828l-2.272,0l0,1.952l2.342,0l0,0.827l-3.223,0l0,-5.84l3.223,0l0,0.831z" fill="#FFFFFF"/>
     <path id="svg_116" d="m292.32,280.831l-2.342,0l0,1.402l2.271,0l0,0.828l-2.271,0l0,1.952l2.342,0l0,0.827l-3.223,0l0,-5.84l3.223,0l0,0.831z" fill="#FFFFFF"/>
     <path id="svg_117" d="m293.788,285.842l0,-6.237l4.26,4.456l0,-4.059l0.881,0l0,6.195l-4.26,-4.445l0,4.09l-0.881,0z" fill="#FFFFFF"/>
     <path id="svg_118" d="m306.769,284.424l-2.5,0l-0.647,1.418l-0.949,0l2.891,-6.207l2.787,6.207l-0.965,0l-0.617,-1.418zm-0.36,-0.83l-0.865,-1.984l-0.908,1.984l1.773,0z" fill="#FFFFFF"/>
     <path id="svg_119" d="m309.386,285.842l0,-6.237l4.261,4.456l0,-4.059l0.883,0l0,6.195l-4.262,-4.445l0,4.09l-0.882,0z" fill="#FFFFFF"/>
     <path id="svg_120" d="m316.235,285.842l0,-5.84l1.226,0c0.587,0 1.052,0.057 1.392,0.174c0.366,0.113 0.697,0.307 0.995,0.578c0.604,0.55 0.903,1.271 0.903,2.168c0,0.896 -0.312,1.623 -0.941,2.178c-0.312,0.277 -0.646,0.471 -0.987,0.58c-0.323,0.107 -0.781,0.162 -1.373,0.162l-1.215,0zm0.882,-0.828l0.396,0c0.396,0 0.729,-0.042 0.987,-0.125c0.262,-0.088 0.499,-0.229 0.711,-0.42c0.434,-0.396 0.65,-0.912 0.65,-1.547c0,-0.641 -0.214,-1.162 -0.646,-1.559c-0.386,-0.355 -0.955,-0.533 -1.706,-0.533l-0.396,0l0.004,4.184l0,0z" fill="#FFFFFF"/>
     <path id="svg_121" d="m325.751,282.288l2.521,0l0,-2.285l0.881,0l0,5.84l-0.881,0l0,-2.727l-2.521,0l0,2.727l-0.881,0l0,-5.84l0.881,0l0,2.285z" fill="#FFFFFF"/>
     <path id="svg_122" d="m330.86,285.842l0,-5.84l1.226,0c0.588,0 1.052,0.057 1.392,0.174c0.367,0.113 0.697,0.307 0.996,0.578c0.604,0.55 0.903,1.271 0.903,2.168c0,0.896 -0.312,1.623 -0.942,2.178c-0.312,0.277 -0.645,0.471 -0.987,0.58c-0.322,0.107 -0.781,0.162 -1.373,0.162l-1.215,0zm0.882,-0.828l0.396,0c0.396,0 0.728,-0.042 0.986,-0.125c0.263,-0.088 0.5,-0.229 0.711,-0.42c0.438,-0.396 0.65,-0.912 0.65,-1.547c0,-0.641 -0.214,-1.162 -0.646,-1.559c-0.386,-0.355 -0.953,-0.533 -1.705,-0.533l-0.396,0l0.004,4.184l0,0z" fill="#FFFFFF"/>
     <path id="svg_123" d="m336.591,285.842l1.229,-6.279l2.005,4.539l2.076,-4.539l1.104,6.279l-0.904,0l-0.562,-3.525l-1.729,3.794l-1.68,-3.798l-0.627,3.529l-0.912,0z" fill="#FFFFFF"/>
     <path id="svg_124" d="m345.435,280.002l0,5.84l-0.883,0l0,-5.84l0.883,0z" fill="#FFFFFF"/>
     <path id="svg_125" d="m354.163,280.316l0,1.043c-0.51,-0.426 -1.037,-0.64 -1.581,-0.64c-0.601,0 -1.106,0.216 -1.517,0.646c-0.414,0.428 -0.621,0.951 -0.621,1.571c0,0.61 0.207,1.13 0.621,1.554c0.41,0.42 0.92,0.631 1.52,0.631c0.312,0 0.574,-0.049 0.791,-0.15c0.121,-0.051 0.246,-0.118 0.377,-0.204c0.13,-0.086 0.266,-0.188 0.41,-0.312l0,1.062c-0.504,0.282 -1.033,0.427 -1.589,0.427c-0.835,0 -1.547,-0.291 -2.137,-0.871c-0.591,-0.59 -0.885,-1.299 -0.885,-2.129c0,-0.742 0.246,-1.404 0.738,-1.986c0.605,-0.715 1.388,-1.07 2.349,-1.07c0.528,0.001 1.035,0.144 1.524,0.428z" fill="#FFFFFF"/>
     <path id="svg_126" d="m355.294,282.895c0,-0.822 0.302,-1.527 0.904,-2.117c0.6,-0.59 1.317,-0.885 2.163,-0.885c0.832,0 1.546,0.297 2.142,0.893c0.597,0.594 0.896,1.309 0.896,2.146c0,0.839 -0.303,1.551 -0.899,2.136c-0.604,0.589 -1.331,0.884 -2.184,0.884c-0.753,0 -1.433,-0.262 -2.031,-0.783c-0.661,-0.583 -0.991,-1.338 -0.991,-2.274zm0.889,0.012c0,0.645 0.22,1.176 0.65,1.594c0.432,0.414 0.93,0.623 1.494,0.623c0.613,0 1.13,-0.213 1.551,-0.637c0.421,-0.428 0.632,-0.949 0.632,-1.564c0,-0.623 -0.208,-1.146 -0.624,-1.563c-0.413,-0.425 -0.926,-0.636 -1.535,-0.636c-0.605,0 -1.118,0.211 -1.54,0.636c-0.419,0.414 -0.628,0.932 -0.628,1.547z" fill="#FFFFFF"/>
     <path id="svg_127" d="m362.816,285.842l0,-6.237l4.259,4.456l0,-4.059l0.881,0l0,6.195l-4.258,-4.445l0,4.09l-0.882,0z" fill="#FFFFFF"/>
     <path id="svg_128" d="m369.666,285.842l0,-6.237l4.259,4.456l0,-4.059l0.881,0l0,6.195l-4.259,-4.445l0,4.09l-0.881,0z" fill="#FFFFFF"/>
     <path id="svg_129" d="m379.738,280.831l-2.341,0l0,1.402l2.271,0l0,0.828l-2.271,0l0,1.952l2.341,0l0,0.827l-3.226,0l0,-5.84l3.226,0l0,0.831z" fill="#FFFFFF"/>
     <path id="svg_130" d="m385.521,280.316l0,1.043c-0.513,-0.426 -1.036,-0.64 -1.58,-0.64c-0.604,0 -1.105,0.216 -1.521,0.646c-0.413,0.428 -0.62,0.951 -0.62,1.571c0,0.61 0.207,1.13 0.62,1.554c0.414,0.42 0.92,0.631 1.521,0.631c0.31,0 0.57,-0.049 0.789,-0.15c0.12,-0.051 0.245,-0.118 0.377,-0.204c0.13,-0.086 0.267,-0.188 0.407,-0.312l0,1.062c-0.504,0.282 -1.03,0.427 -1.588,0.427c-0.835,0 -1.547,-0.291 -2.138,-0.871c-0.587,-0.59 -0.881,-1.299 -0.881,-2.129c0,-0.742 0.245,-1.404 0.737,-1.986c0.604,-0.715 1.389,-1.07 2.35,-1.07c0.53,0.001 1.038,0.144 1.527,0.428z" fill="#FFFFFF"/>
     <path id="svg_131" d="m388.554,280.831l0,5.012l-0.881,0l0,-5.012l-1.342,0l0,-0.828l3.562,0l0,0.828l-1.339,0z" fill="#FFFFFF"/>
     <path id="svg_132" d="m391.87,280.002l0,5.84l-0.881,0l0,-5.84l0.881,0z" fill="#FFFFFF"/>
     <path id="svg_133" d="m393.88,280.002l1.615,4.047l1.637,-4.047l0.965,0l-2.621,6.277l-2.561,-6.277l0.965,0z" fill="#FFFFFF"/>
     <path id="svg_134" d="m400.014,280.002l0,5.84l-0.882,0l0,-5.84l0.882,0z" fill="#FFFFFF"/>
     <path id="svg_135" d="m403.335,280.831l0,5.012l-0.88,0l0,-5.012l-1.341,0l0,-0.828l3.559,0l0,0.828l-1.338,0z" fill="#FFFFFF"/>
     <path id="svg_136" d="m406.949,283.318l-1.906,-3.315l1.014,0l1.336,2.334l1.341,-2.334l1.014,0l-1.914,3.315l0,2.522l-0.881,0l-0.004,-2.522l0,0z" fill="#FFFFFF"/>
    </g>
    <g id="svg_137">
     <path id="svg_138" d="m69.006,284.424l-2.5,0l-0.65,1.418l-0.949,0l2.889,-6.207l2.788,6.207l-0.964,0l-0.614,-1.418zm-0.36,-0.83l-0.866,-1.984l-0.908,1.984l1.774,0z" fill="#FFFFFF"/>
     <path id="svg_139" d="m71.623,285.842l0,-6.237l4.258,4.456l0,-4.059l0.882,0l0,6.195l-4.259,-4.445l0,4.09l-0.881,0z" fill="#FFFFFF"/>
     <path id="svg_140" d="m78.472,285.842l0,-5.84l1.226,0c0.587,0 1.051,0.057 1.392,0.174c0.366,0.113 0.697,0.307 0.995,0.578c0.603,0.55 0.904,1.271 0.904,2.168c0,0.896 -0.314,1.623 -0.941,2.178c-0.315,0.277 -0.646,0.471 -0.991,0.58c-0.323,0.107 -0.78,0.162 -1.373,0.162l-1.212,0zm0.882,-0.828l0.397,0c0.396,0 0.725,-0.042 0.987,-0.125c0.262,-0.088 0.5,-0.229 0.711,-0.42c0.434,-0.396 0.65,-0.912 0.65,-1.547c0,-0.641 -0.214,-1.162 -0.643,-1.559c-0.386,-0.355 -0.954,-0.533 -1.706,-0.533l-0.397,0l0.001,4.184l0,0z" fill="#FFFFFF"/>
     <path id="svg_141" d="m90.538,284.424l-2.5,0l-0.65,1.418l-0.949,0l2.89,-6.207l2.788,6.207l-0.967,0l-0.612,-1.418zm-0.36,-0.83l-0.866,-1.984l-0.908,1.984l1.774,0z" fill="#FFFFFF"/>
     <path id="svg_142" d="m94.766,280.831l0,5.012l-0.881,0l0,-5.012l-1.342,0l0,-0.828l3.562,0l0,0.828l-1.339,0z" fill="#FFFFFF"/>
     <path id="svg_143" d="m100.783,282.288l2.519,0l0,-2.285l0.881,0l0,5.84l-0.881,0l0,-2.727l-2.519,0l0,2.727l-0.881,0l0,-5.84l0.881,0l0,2.285z" fill="#FFFFFF"/>
     <path id="svg_144" d="m105.602,282.895c0,-0.822 0.302,-1.527 0.904,-2.117c0.6,-0.59 1.321,-0.885 2.163,-0.885c0.832,0 1.546,0.297 2.141,0.893c0.598,0.594 0.896,1.309 0.896,2.146c0,0.839 -0.3,1.551 -0.9,2.136c-0.603,0.589 -1.331,0.884 -2.183,0.884c-0.753,0 -1.431,-0.262 -2.031,-0.783c-0.66,-0.583 -0.99,-1.338 -0.99,-2.274zm0.888,0.012c0,0.645 0.217,1.176 0.651,1.594c0.431,0.414 0.929,0.623 1.494,0.623c0.613,0 1.13,-0.213 1.551,-0.637c0.421,-0.428 0.631,-0.949 0.631,-1.564c0,-0.623 -0.208,-1.146 -0.624,-1.563c-0.413,-0.425 -0.925,-0.636 -1.536,-0.636c-0.608,0 -1.121,0.211 -1.54,0.636c-0.418,0.414 -0.627,0.932 -0.627,1.547z" fill="#FFFFFF"/>
     <path id="svg_145" d="m112.92,285.842l1.229,-6.279l2.004,4.539l2.076,-4.539l1.105,6.279l-0.904,0l-0.564,-3.525l-1.729,3.794l-1.68,-3.798l-0.627,3.529l-0.91,0z" fill="#FFFFFF"/>
     <path id="svg_146" d="m124.104,280.831l-2.341,0l0,1.402l2.273,0l0,0.828l-2.273,0l0,1.952l2.341,0l0,0.827l-3.223,0l0,-5.84l3.223,0l0,0.831z" fill="#FFFFFF"/>
     <path id="svg_147" d="m129.883,280.831l0,5.012l-0.881,0l0,-5.012l-1.343,0l0,-0.828l3.563,0l0,0.828l-1.339,0z" fill="#FFFFFF"/>
     <path id="svg_148" d="m133.2,282.288l2.519,0l0,-2.285l0.881,0l0,5.84l-0.881,0l0,-2.727l-2.519,0l0,2.727l-0.881,0l0,-5.84l0.881,0l0,2.285z" fill="#FFFFFF"/>
     <path id="svg_149" d="m141.74,284.424l-2.5,0l-0.65,1.418l-0.95,0l2.89,-6.207l2.788,6.207l-0.965,0l-0.613,-1.418zm-0.36,-0.83l-0.866,-1.984l-0.907,1.984l1.773,0z" fill="#FFFFFF"/>
     <path id="svg_150" d="m144.357,285.842l0,-6.237l4.259,4.456l0,-4.059l0.881,0l0,6.195l-4.259,-4.445l0,4.09l-0.881,0z" fill="#FFFFFF"/>
     <path id="svg_151" d="m152.088,282.333l2.273,-2.33l1.177,0l-2.641,2.646l2.656,3.193l-1.18,0l-2.103,-2.598l-0.182,0.18l0,2.418l-0.881,0l0,-5.84l0.881,0l0,2.331z" fill="#FFFFFF"/>
     <path id="svg_152" d="m159.951,280.872l-0.715,0.424c-0.134,-0.23 -0.261,-0.383 -0.382,-0.453c-0.125,-0.082 -0.289,-0.119 -0.488,-0.119c-0.245,0 -0.447,0.066 -0.609,0.207c-0.162,0.137 -0.242,0.311 -0.242,0.516c0,0.283 0.212,0.516 0.636,0.688l0.583,0.238c0.474,0.19 0.821,0.426 1.04,0.701c0.22,0.276 0.329,0.614 0.329,1.016c0,0.537 -0.179,0.98 -0.537,1.332c-0.36,0.354 -0.809,0.529 -1.343,0.529c-0.507,0 -0.926,-0.15 -1.256,-0.449c-0.325,-0.301 -0.528,-0.724 -0.609,-1.269l0.893,-0.196c0.041,0.344 0.111,0.58 0.212,0.711c0.182,0.254 0.446,0.379 0.794,0.379c0.275,0 0.503,-0.092 0.685,-0.273c0.182,-0.188 0.273,-0.418 0.273,-0.701c0,-0.111 -0.016,-0.217 -0.047,-0.312c-0.032,-0.094 -0.081,-0.182 -0.148,-0.26c-0.066,-0.08 -0.152,-0.154 -0.258,-0.226c-0.106,-0.067 -0.232,-0.138 -0.378,-0.198l-0.564,-0.232c-0.799,-0.338 -1.199,-0.832 -1.199,-1.481c0,-0.438 0.168,-0.808 0.503,-1.103c0.335,-0.297 0.753,-0.444 1.252,-0.444c0.671,-0.008 1.197,0.32 1.575,0.975z" fill="#FFFFFF"/>
     <path id="svg_153" d="m165.787,280.831l0,5.012l-0.881,0l0,-5.012l-1.342,0l0,-0.828l3.562,0l0,0.828l-1.339,0z" fill="#FFFFFF"/>
     <path id="svg_154" d="m167.932,282.895c0,-0.822 0.301,-1.527 0.904,-2.117c0.6,-0.59 1.321,-0.885 2.164,-0.885c0.832,0 1.545,0.297 2.141,0.893c0.597,0.594 0.896,1.309 0.896,2.146c0,0.839 -0.3,1.551 -0.9,2.136c-0.603,0.589 -1.33,0.884 -2.182,0.884c-0.754,0 -1.431,-0.262 -2.031,-0.783c-0.663,-0.583 -0.992,-1.338 -0.992,-2.274zm0.888,0.012c0,0.645 0.216,1.176 0.65,1.594c0.431,0.414 0.929,0.623 1.494,0.623c0.613,0 1.13,-0.213 1.551,-0.637c0.421,-0.428 0.631,-0.949 0.631,-1.564c0,-0.623 -0.208,-1.146 -0.624,-1.563c-0.414,-0.425 -0.926,-0.636 -1.536,-0.636c-0.608,0 -1.121,0.211 -1.54,0.636c-0.417,0.414 -0.626,0.932 -0.626,1.547z" fill="#FFFFFF"/>
     <path id="svg_155" d="m181.585,284.424l-2.5,0l-0.651,1.418l-0.949,0l2.89,-6.207l2.788,6.207l-0.964,0l-0.614,-1.418zm-0.359,-0.83l-0.866,-1.984l-0.908,1.984l1.774,0z" fill="#FFFFFF"/>
     <path id="svg_156" d="m187.784,282.288l2.519,0l0,-2.285l0.882,0l0,5.84l-0.882,0l0,-2.727l-2.519,0l0,2.727l-0.881,0l0,-5.84l0.881,0l0,2.285z" fill="#FFFFFF"/>
     <path id="svg_157" d="m193.775,280.002l0,5.84l-0.882,0l0,-5.84l0.882,0z" fill="#FFFFFF"/>
     <path id="svg_158" d="m198.491,282.801l2.413,0l0,0.193c0,0.438 -0.052,0.823 -0.155,1.164c-0.101,0.311 -0.271,0.604 -0.511,0.879c-0.542,0.606 -1.232,0.914 -2.068,0.914c-0.817,0 -1.517,-0.295 -2.1,-0.889c-0.582,-0.594 -0.874,-1.305 -0.874,-2.132c0,-0.851 0.296,-1.563 0.889,-2.156c0.592,-0.594 1.313,-0.89 2.163,-0.89c0.457,0 0.882,0.094 1.279,0.277c0.378,0.188 0.75,0.488 1.116,0.908l-0.628,0.602c-0.479,-0.639 -1.062,-0.957 -1.751,-0.957c-0.617,0 -1.136,0.216 -1.555,0.642c-0.418,0.418 -0.628,0.94 -0.628,1.574c0,0.647 0.234,1.188 0.7,1.604c0.437,0.393 0.909,0.586 1.418,0.586c0.434,0 0.824,-0.146 1.169,-0.438c0.345,-0.295 0.538,-0.646 0.579,-1.061l-1.456,0l0,-0.82z" fill="#FFFFFF"/>
     <path id="svg_159" d="m203.203,282.288l2.52,0l0,-2.285l0.881,0l0,5.84l-0.881,0l0,-2.727l-2.52,0l0,2.727l-0.881,0l0,-5.84l0.881,0l0,2.285z" fill="#FFFFFF"/>
     <path id="svg_160" d="m216.956,285.948l-1.108,0l-0.458,-0.47c-0.487,0.312 -1.029,0.47 -1.626,0.47c-0.774,0 -1.461,-0.263 -2.062,-0.787c-0.654,-0.576 -0.98,-1.312 -0.98,-2.213c0,-0.88 0.309,-1.613 0.927,-2.199c0.6,-0.572 1.309,-0.854 2.126,-0.854c0.741,0 1.406,0.249 1.993,0.748c0.706,0.602 1.059,1.383 1.059,2.352c0,0.756 -0.279,1.43 -0.836,2.016l0.965,0.937zm-2.425,-2.418l0.847,0.844c0.373,-0.388 0.56,-0.867 0.56,-1.438c0,-0.629 -0.208,-1.152 -0.625,-1.577c-0.416,-0.425 -0.933,-0.636 -1.55,-0.636c-0.625,0 -1.14,0.211 -1.543,0.636c-0.406,0.421 -0.609,0.953 -0.609,1.601c0,0.633 0.209,1.146 0.628,1.547c0.436,0.416 0.934,0.621 1.494,0.621c0.381,0 0.726,-0.086 1.033,-0.26l-1.373,-1.332l1.138,0l0,-0.006z" fill="#FFFFFF"/>
     <path id="svg_161" d="m219.126,280.002l0,3.518c0,0.501 0.082,0.869 0.246,1.102c0.245,0.334 0.589,0.502 1.033,0.502c0.446,0 0.792,-0.168 1.036,-0.502c0.164,-0.226 0.246,-0.592 0.246,-1.102l0,-3.518l0.881,0l0,3.76c0,0.615 -0.191,1.121 -0.575,1.52c-0.431,0.445 -0.961,0.666 -1.588,0.666c-0.628,0 -1.157,-0.221 -1.585,-0.666c-0.383,-0.396 -0.575,-0.904 -0.575,-1.52l0,-3.76l0.881,0z" fill="#FFFFFF"/>
     <path id="svg_162" d="m227.708,284.424l-2.5,0l-0.651,1.418l-0.949,0l2.89,-6.207l2.788,6.207l-0.964,0l-0.614,-1.418zm-0.359,-0.83l-0.866,-1.984l-0.908,1.984l1.774,0z" fill="#FFFFFF"/>
     <path id="svg_163" d="m231.207,280.002l0,5.012l1.717,0l0,0.828l-2.598,0l0,-5.84l0.881,0z" fill="#FFFFFF"/>
     <path id="svg_164" d="m234.951,280.002l0,5.84l-0.881,0l0,-5.84l0.881,0z" fill="#FFFFFF"/>
     <path id="svg_165" d="m238.275,280.831l0,5.012l-0.881,0l0,-5.012l-1.343,0l0,-0.828l3.563,0l0,0.828l-1.339,0z" fill="#FFFFFF"/>
     <path id="svg_166" d="m241.891,283.318l-1.907,-3.315l1.014,0l1.335,2.334l1.339,-2.334l1.013,0l-1.914,3.315l0,2.522l-0.881,0l0.001,-2.522l0,0z" fill="#FFFFFF"/>
    </g>
   </g>
  </g>
  <g id="svg_167">
   <path id="svg_168" d="m5.904,248.135l0,5.713l-2.123,0l0,-14.068l2.406,0c1.178,0 2.068,0.082 2.67,0.246c0.607,0.164 1.142,0.475 1.604,0.93c0.808,0.789 1.212,1.785 1.212,2.988c0,1.288 -0.432,2.309 -1.294,3.062c-0.863,0.752 -2.026,1.129 -3.49,1.129l-0.985,0l0,0zm0,-1.968l0.793,0c1.95,0 2.925,-0.75 2.925,-2.25c0,-1.451 -1.005,-2.178 -3.016,-2.178l-0.702,0l0,4.428z" fill="#0080BF"/>
   <path id="svg_169" d="m18.625,247.853l4.355,5.995l-2.597,0l-4.019,-5.76l-0.383,0l0,5.76l-2.123,0l0,-14.068l2.487,0c1.859,0 3.201,0.35 4.027,1.049c0.912,0.776 1.367,1.803 1.367,3.078c0,0.997 -0.285,1.854 -0.856,2.57c-0.571,0.716 -1.323,1.175 -2.258,1.376zm-2.643,-1.612l0.675,0c2.011,0 3.016,-0.77 3.016,-2.307c0,-1.439 -0.978,-2.159 -2.934,-2.159l-0.757,0l0,4.466z" fill="#0080BF"/>
   <path id="svg_170" d="m24.392,246.75c0,-1.98 0.727,-3.684 2.178,-5.104c1.446,-1.421 3.184,-2.132 5.212,-2.132c2.005,0 3.725,0.717 5.158,2.15c1.439,1.434 2.159,3.154 2.159,5.166c0,2.021 -0.723,3.737 -2.169,5.146c-1.451,1.416 -3.204,2.123 -5.258,2.123c-1.815,0 -3.447,-0.628 -4.893,-1.887c-1.591,-1.385 -2.387,-3.21 -2.387,-5.462zm2.142,0.028c0,1.555 0.522,2.833 1.567,3.836c1.039,1.002 2.238,1.504 3.599,1.504c1.477,0 2.722,-0.511 3.736,-1.531c1.015,-1.031 1.521,-2.289 1.521,-3.771c0,-1.5 -0.501,-2.758 -1.503,-3.771c-0.996,-1.021 -2.229,-1.53 -3.7,-1.53c-1.464,0 -2.7,0.51 -3.708,1.53c-1.008,1.004 -1.512,2.25 -1.512,3.733z" fill="#0080BF"/>
   <path id="svg_171" d="m40.083,246.89l4.063,0l0,1.786l-4.063,0l0,-1.786z" fill="#0080BF"/>
   <path id="svg_172" d="m53.068,246.522l5.813,0l0,0.465c0,1.059 -0.125,1.993 -0.374,2.807c-0.243,0.754 -0.652,1.459 -1.229,2.115c-1.307,1.469 -2.968,2.205 -4.984,2.205c-1.969,0 -3.654,-0.712 -5.058,-2.134c-1.403,-1.427 -2.104,-3.142 -2.104,-5.14c0,-2.041 0.714,-3.771 2.142,-5.193c1.427,-1.428 3.164,-2.141 5.212,-2.141c1.1,0 2.126,0.225 3.079,0.674c0.912,0.449 1.808,1.179 2.688,2.188l-1.513,1.448c-1.154,-1.537 -2.561,-2.306 -4.219,-2.306c-1.488,0 -2.736,0.514 -3.745,1.539c-1.008,1.01 -1.513,2.273 -1.513,3.791c0,1.568 0.562,2.859 1.686,3.873c1.052,0.94 2.19,1.412 3.417,1.412c1.045,0 1.983,-0.354 2.816,-1.059c0.832,-0.71 1.297,-1.562 1.394,-2.551l-3.508,0l0,-1.993z" fill="#0080BF"/>
   <path id="svg_173" d="m69.314,241.775l-5.64,0l0,3.382l5.476,0l0,1.994l-5.476,0l0,4.702l5.64,0l0,1.995l-7.763,0l0,-14.068l7.763,0l0,1.995z" fill="#0080BF"/>
   <path id="svg_174" d="m80.367,250.431l-6.022,0l-1.567,3.417l-2.288,0l6.962,-14.952l6.715,14.952l-2.323,0l-1.477,-3.417zm-0.866,-1.995l-2.087,-4.784l-2.187,4.784l4.274,0z" fill="#0080BF"/>
   <path id="svg_175" d="m90.691,247.853l4.355,5.995l-2.596,0l-4.019,-5.76l-0.383,0l0,5.76l-2.123,0l0,-14.068l2.487,0c1.859,0 3.202,0.35 4.028,1.049c0.911,0.776 1.366,1.803 1.366,3.078c0,0.997 -0.285,1.854 -0.856,2.57c-0.571,0.716 -1.324,1.175 -2.259,1.376zm-2.643,-1.612l0.675,0c2.011,0 3.016,-0.77 3.016,-2.307c0,-1.439 -0.978,-2.159 -2.934,-2.159l-0.757,0l0,4.466z" fill="#0080BF"/>
   <path id="svg_176" d="m110.875,241.875l-1.723,1.021c-0.322,-0.56 -0.629,-0.924 -0.92,-1.095c-0.304,-0.193 -0.696,-0.291 -1.176,-0.291c-0.589,0 -1.078,0.168 -1.467,0.502c-0.389,0.328 -0.583,0.74 -0.583,1.238c0,0.688 0.51,1.24 1.53,1.658l1.403,0.573c1.143,0.461 1.978,1.022 2.506,1.688c0.528,0.666 0.793,1.481 0.793,2.449c0,1.293 -0.432,2.361 -1.294,3.207c-0.869,0.85 -1.947,1.273 -3.235,1.273c-1.221,0 -2.229,-0.359 -3.024,-1.084c-0.784,-0.725 -1.273,-1.74 -1.468,-3.055l2.15,-0.473c0.098,0.825 0.268,1.396 0.511,1.713c0.438,0.606 1.075,0.91 1.913,0.91c0.662,0 1.212,-0.222 1.649,-0.664c0.437,-0.443 0.656,-1.006 0.656,-1.688c0,-0.271 -0.038,-0.523 -0.114,-0.752c-0.075,-0.229 -0.194,-0.438 -0.354,-0.629c-0.161,-0.191 -0.369,-0.371 -0.625,-0.539c-0.255,-0.166 -0.559,-0.323 -0.911,-0.477l-1.357,-0.564c-1.926,-0.812 -2.889,-2.004 -2.889,-3.571c0,-1.058 0.404,-1.94 1.212,-2.651c0.809,-0.717 1.813,-1.074 3.017,-1.074c1.622,0.006 2.887,0.795 3.8,2.375z" fill="#0080BF"/>
   <path id="svg_177" d="m115.922,248.135l0,5.713l-2.123,0l0,-14.068l2.405,0c1.179,0 2.068,0.082 2.67,0.246c0.607,0.164 1.142,0.475 1.604,0.93c0.808,0.789 1.212,1.785 1.212,2.988c0,1.288 -0.432,2.309 -1.294,3.062c-0.862,0.752 -2.025,1.129 -3.49,1.129l-0.984,0l0,0zm0,-1.968l0.792,0c1.95,0 2.926,-0.75 2.926,-2.25c0,-1.451 -1.006,-2.178 -3.017,-2.178l-0.701,0l0,4.428z" fill="#0080BF"/>
   <path id="svg_178" d="m131.64,241.775l-5.64,0l0,3.382l5.477,0l0,1.994l-5.477,0l0,4.702l5.641,0l0,1.995l-7.764,0l0,-14.068l7.764,0l-0.001,1.995l0,0z" fill="#0080BF"/>
   <path id="svg_179" d="m144.826,240.536l0,2.516c-1.228,-1.025 -2.497,-1.538 -3.81,-1.538c-1.445,0 -2.663,0.521 -3.653,1.558c-0.996,1.033 -1.494,2.297 -1.494,3.791c0,1.477 0.498,2.723 1.494,3.735c0.996,1.014 2.217,1.521 3.663,1.521c0.747,0 1.382,-0.121 1.904,-0.365c0.291,-0.121 0.594,-0.285 0.906,-0.492c0.313,-0.204 0.643,-0.453 0.989,-0.745l0,2.562c-1.216,0.688 -2.491,1.028 -3.827,1.028c-2.011,0 -3.728,-0.701 -5.148,-2.104c-1.416,-1.416 -2.123,-3.123 -2.123,-5.121c0,-1.793 0.592,-3.391 1.776,-4.793c1.458,-1.719 3.345,-2.578 5.659,-2.578c1.263,-0.005 2.485,0.338 3.664,1.025z" fill="#0080BF"/>
   <path id="svg_180" d="m161.528,250.431l-6.023,0l-1.567,3.417l-2.287,0l6.962,-14.952l6.716,14.952l-2.324,0l-1.477,-3.417zm-0.866,-1.995l-2.086,-4.784l-2.188,4.784l4.274,0z" fill="#0080BF"/>
   <path id="svg_181" d="m167.085,253.848l0,-14.068l2.952,0c1.416,0 2.533,0.141 3.354,0.42c0.881,0.272 1.68,0.737 2.396,1.393c1.452,1.326 2.178,3.066 2.178,5.224c0,2.162 -0.756,3.912 -2.269,5.248c-0.76,0.669 -1.556,1.136 -2.388,1.396c-0.777,0.262 -1.88,0.393 -3.308,0.393l-2.915,0l0,-0.006zm2.123,-1.995l0.957,0c0.954,0 1.746,-0.101 2.378,-0.302c0.632,-0.213 1.203,-0.549 1.714,-1.012c1.044,-0.953 1.566,-2.195 1.566,-3.728c0,-1.543 -0.516,-2.794 -1.549,-3.754c-0.929,-0.854 -2.299,-1.285 -4.109,-1.285l-0.957,0l0,10.081z" fill="#0080BF"/>
   <path id="svg_182" d="m181.346,239.78l3.891,9.749l3.945,-9.749l2.324,0l-6.315,15.127l-6.168,-15.127l2.323,0z" fill="#0080BF"/>
   <path id="svg_183" d="m201.52,250.431l-6.023,0l-1.567,3.417l-2.287,0l6.962,-14.952l6.717,14.952l-2.325,0l-1.477,-3.417zm-0.866,-1.995l-2.086,-4.784l-2.188,4.784l4.274,0z" fill="#0080BF"/>
   <path id="svg_184" d="m207.079,253.848l0,-15.025l10.261,10.733l0,-9.776l2.123,0l0,14.926l-10.261,-10.707l0,9.852l-2.123,-0.003l0,0z" fill="#0080BF"/>
   <path id="svg_185" d="m233.23,240.536l0,2.516c-1.227,-1.025 -2.496,-1.538 -3.809,-1.538c-1.445,0 -2.664,0.521 -3.653,1.558c-0.997,1.033 -1.495,2.297 -1.495,3.791c0,1.477 0.498,2.723 1.495,3.735c0.996,1.015 2.217,1.521 3.662,1.521c0.748,0 1.383,-0.121 1.905,-0.365c0.291,-0.121 0.592,-0.285 0.904,-0.492c0.312,-0.204 0.645,-0.453 0.99,-0.745l0,2.562c-1.215,0.688 -2.49,1.028 -3.827,1.028c-2.01,0 -3.727,-0.701 -5.147,-2.104c-1.416,-1.416 -2.123,-3.123 -2.123,-5.121c0,-1.793 0.592,-3.391 1.776,-4.793c1.458,-1.719 3.344,-2.578 5.658,-2.578c1.265,-0.005 2.486,0.338 3.664,1.025z" fill="#0080BF"/>
   <path id="svg_186" d="m243.672,241.775l-5.64,0l0,3.382l5.476,0l0,1.994l-5.476,0l0,4.702l5.64,0l0,1.995l-7.763,0l0,-14.068l7.763,0l0,1.995z" fill="#0080BF"/>
   <path id="svg_187" d="m246.46,253.848l0,-14.068l2.953,0c1.415,0 2.533,0.141 3.353,0.42c0.88,0.272 1.679,0.737 2.396,1.393c1.453,1.326 2.178,3.066 2.178,5.224c0,2.162 -0.756,3.912 -2.268,5.248c-0.76,0.669 -1.555,1.136 -2.388,1.396c-0.777,0.262 -1.88,0.393 -3.308,0.393l-2.916,0l0,-0.006l0,0zm2.124,-1.995l0.956,0c0.954,0 1.747,-0.101 2.379,-0.302c0.631,-0.213 1.202,-0.549 1.713,-1.012c1.045,-0.953 1.566,-2.195 1.566,-3.728c0,-1.543 -0.517,-2.794 -1.55,-3.754c-0.93,-0.854 -2.298,-1.285 -4.109,-1.285l-0.956,0l0.001,10.081l0,0z" fill="#0080BF"/>
   <path id="svg_188" d="m273.533,241.775l-5.641,0l0,3.382l5.477,0l0,1.994l-5.477,0l0,4.702l5.641,0l0,1.995l-7.764,0l0,-14.068l7.764,0l0,1.995z" fill="#0080BF"/>
   <path id="svg_189" d="m276.32,253.848l0,-15.025l10.26,10.733l0,-9.776l2.123,0l0,14.926l-10.26,-10.707l0,9.852l-2.123,-0.003l0,0z" fill="#0080BF"/>
   <path id="svg_190" d="m295.957,241.775l0,12.073l-2.123,0l0,-12.073l-3.234,0l0,-1.995l8.584,0l0,1.995l-3.227,0z" fill="#0080BF"/>
   <path id="svg_191" d="m308.842,241.775l-5.641,0l0,3.382l5.477,0l0,1.994l-5.477,0l0,4.702l5.641,0l0,1.995l-7.764,0l0,-14.068l7.764,0l0,1.995z" fill="#0080BF"/>
   <path id="svg_192" d="m316.395,247.853l4.355,5.995l-2.596,0l-4.021,-5.76l-0.383,0l0,5.76l-2.123,0l0,-14.068l2.488,0c1.857,0 3.201,0.35 4.025,1.049c0.912,0.776 1.367,1.803 1.367,3.078c0,0.997 -0.285,1.854 -0.855,2.57c-0.568,0.717 -1.322,1.175 -2.257,1.376zm-2.643,-1.612l0.676,0c2.012,0 3.018,-0.77 3.018,-2.307c0,-1.439 -0.979,-2.159 -2.936,-2.159l-0.758,0l0,4.466z" fill="#0080BF"/>
   <path id="svg_193" d="m326.746,241.775l0,12.073l-2.123,0l0,-12.073l-3.234,0l0,-1.995l8.584,0l0,1.995l-3.227,0z" fill="#0080BF"/>
   <path id="svg_194" d="m340.133,250.431l-6.021,0l-1.568,3.417l-2.287,0l6.963,-14.952l6.715,14.952l-2.322,0l-1.48,-3.417zm-0.867,-1.995l-2.086,-4.784l-2.188,4.784l4.274,0z" fill="#0080BF"/>
   <path id="svg_195" d="m347.812,239.78l0,14.068l-2.123,0l0,-14.068l2.123,0z" fill="#0080BF"/>
   <path id="svg_196" d="m351.193,253.848l0,-15.025l10.26,10.733l0,-9.776l2.123,0l0,14.926l-10.26,-10.707l0,9.852l-2.123,-0.003l0,0z" fill="#0080BF"/>
   <path id="svg_197" d="m366.457,253.848l2.961,-15.126l4.83,10.935l5.002,-10.935l2.66,15.126l-2.178,0l-1.357,-8.492l-4.164,9.141l-4.047,-9.147l-1.512,8.501l-2.195,-0.003l0,0z" fill="#0080BF"/>
   <path id="svg_198" d="m392.654,241.775l-5.643,0l0,3.382l5.479,0l0,1.994l-5.479,0l0,4.702l5.643,0l0,1.995l-7.766,0l0,-14.068l7.766,0l0,1.995z" fill="#0080BF"/>
   <path id="svg_199" d="m395.441,253.848l0,-15.025l10.26,10.733l0,-9.776l2.123,0l0,14.926l-10.26,-10.707l0,9.852l-2.123,-0.003l0,0z" fill="#0080BF"/>
   <path id="svg_200" d="m415.078,241.775l0,12.073l-2.123,0l0,-12.073l-3.234,0l0,-1.995l8.582,0l0,1.995l-3.225,0z" fill="#0080BF"/>
   <path id="svg_201" d="m433.912,241.875l-1.723,1.021c-0.32,-0.56 -0.631,-0.924 -0.922,-1.095c-0.303,-0.193 -0.693,-0.291 -1.176,-0.291c-0.588,0 -1.078,0.168 -1.467,0.502c-0.389,0.328 -0.582,0.74 -0.582,1.238c0,0.688 0.51,1.24 1.529,1.658l1.402,0.573c1.145,0.461 1.979,1.022 2.508,1.688c0.525,0.666 0.793,1.481 0.793,2.449c0,1.293 -0.434,2.361 -1.297,3.207c-0.867,0.85 -1.945,1.273 -3.232,1.273c-1.221,0 -2.229,-0.359 -3.025,-1.084c-0.781,-0.725 -1.271,-1.74 -1.467,-3.055l2.15,-0.473c0.098,0.825 0.268,1.396 0.51,1.713c0.438,0.606 1.076,0.91 1.914,0.91c0.662,0 1.213,-0.222 1.646,-0.664c0.438,-0.443 0.656,-1.006 0.656,-1.688c0,-0.271 -0.039,-0.523 -0.115,-0.752c-0.074,-0.229 -0.191,-0.438 -0.354,-0.629c-0.16,-0.191 -0.367,-0.371 -0.621,-0.539c-0.256,-0.166 -0.562,-0.323 -0.912,-0.477l-1.355,-0.564c-1.928,-0.812 -2.891,-2.004 -2.891,-3.571c0,-1.058 0.404,-1.94 1.211,-2.651c0.811,-0.717 1.814,-1.074 3.02,-1.074c1.622,0.006 2.89,0.795 3.8,2.375z" fill="#0080BF"/>
   <path id="svg_202" d="m439.68,247.771l-4.592,-7.991l2.441,0l3.217,5.622l3.227,-5.622l2.441,0l-4.611,7.991l0,6.077l-2.123,0l0,-6.077l0,0z" fill="#0080BF"/>
   <path id="svg_203" d="m455.99,241.875l-1.725,1.021c-0.318,-0.56 -0.627,-0.924 -0.92,-1.095c-0.303,-0.193 -0.693,-0.291 -1.176,-0.291c-0.588,0 -1.078,0.168 -1.467,0.502c-0.391,0.328 -0.582,0.74 -0.582,1.238c0,0.688 0.51,1.24 1.529,1.658l1.402,0.573c1.145,0.461 1.979,1.022 2.506,1.688c0.529,0.666 0.793,1.481 0.793,2.449c0,1.293 -0.432,2.361 -1.295,3.207c-0.865,0.85 -1.943,1.273 -3.232,1.273c-1.223,0 -2.229,-0.359 -3.025,-1.084c-0.783,-0.725 -1.271,-1.74 -1.467,-3.055l2.148,-0.473c0.1,0.825 0.27,1.396 0.512,1.713c0.438,0.606 1.076,0.91 1.914,0.91c0.662,0 1.213,-0.222 1.648,-0.664c0.438,-0.443 0.654,-1.006 0.654,-1.688c0,-0.271 -0.039,-0.523 -0.115,-0.752c-0.076,-0.229 -0.191,-0.438 -0.354,-0.629c-0.16,-0.191 -0.367,-0.371 -0.621,-0.539c-0.256,-0.166 -0.562,-0.323 -0.912,-0.477l-1.357,-0.564c-1.926,-0.812 -2.889,-2.004 -2.889,-3.571c0,-1.058 0.404,-1.94 1.213,-2.651c0.809,-0.717 1.812,-1.074 3.018,-1.074c1.622,0.006 2.89,0.795 3.8,2.375z" fill="#0080BF"/>
   <path id="svg_204" d="m462.797,241.775l0,12.073l-2.123,0l0,-12.073l-3.232,0l0,-1.995l8.584,0l0,1.995l-3.229,0z" fill="#0080BF"/>
   <path id="svg_205" d="m475.682,241.775l-5.641,0l0,3.382l5.477,0l0,1.994l-5.477,0l0,4.702l5.641,0l0,1.995l-7.764,0l0,-14.068l7.764,0l0,1.995z" fill="#0080BF"/>
   <path id="svg_206" d="m477.979,253.848l2.963,-15.126l4.826,10.935l5.004,-10.935l2.66,15.126l-2.178,0l-1.357,-8.492l-4.162,9.141l-4.049,-9.147l-1.512,8.501l-2.195,-0.003l0,0z" fill="#0080BF"/>
  </g>
  <g id="svg_207">
   <g id="svg_208">
    <g id="svg_209">
     <path id="svg_210" d="m204.918,8.842c0,3.568 2.393,6.464 5.34,6.464l14.814,0c0.367,0 0.663,0.355 0.663,0.792c0,0.449 -0.296,0.806 -0.663,0.806l-20.155,0l0,5.664l22.576,0c2.947,0 5.34,-2.897 5.34,-6.468c0,-3.569 -2.39,-6.458 -5.34,-6.458l-14.813,0c-0.363,0 -0.662,-0.353 -0.662,-0.797c0,-0.439 0.298,-0.804 0.662,-0.804l20.153,0l0,-5.658l-22.576,0c-2.946,0 -5.339,2.889 -5.339,6.459z" fill="#0080BF"/>
     <g id="svg_211">
      <polygon id="svg_212" points="255.25599670410156,2.3800013065338135 255.25599670410156,15.027999877929688 241.77099609375,2.3800013065338135 234.427001953125,2.3800013065338135 234.427001953125,22.56800079345703 241.51600646972656,22.56800079345703 241.51600646972656,9.915000915527344 255.00799560546875,22.56800079345703 262.34600830078125,22.56800079345703 262.34600830078125,2.3800013065338135 " fill="#0080BF"/>
     </g>
     <polygon id="svg_213" points="291.85400390625,2.3800013065338135 282.5690002441406,2.3800013065338135 271.0270080566406,11.279998779296875 271.0270080566406,2.3800013065338135 263.9429931640625,2.3800013065338135 263.9429931640625,22.56800079345703 271.0270080566406,22.56800079345703 271.0270080566406,13.666000366210938 282.5690002441406,22.56800079345703 291.85400390625,22.56800079345703 278.7659912109375,12.470001220703125 " fill="#0080BF"/>
    </g>
    <g id="svg_214">
     <g id="svg_215">
      <path id="svg_216" d="m295.488,3.004c-0.409,-0.409 -0.919,-0.621 -1.512,-0.621c-0.588,0 -1.084,0.213 -1.495,0.621c-0.428,0.419 -0.632,0.914 -0.632,1.512c0,0.582 0.204,1.086 0.624,1.509c0.411,0.411 0.915,0.622 1.503,0.622c0.593,0 1.103,-0.211 1.512,-0.622c0.415,-0.421 0.626,-0.927 0.626,-1.509c0,-0.602 -0.211,-1.095 -0.626,-1.512zm-0.213,2.806c-0.347,0.361 -0.776,0.545 -1.29,0.545c-0.506,0 -0.938,-0.183 -1.293,-0.545c-0.359,-0.357 -0.535,-0.796 -0.535,-1.295c0,-0.517 0.176,-0.941 0.535,-1.303c0.363,-0.359 0.791,-0.544 1.293,-0.544s0.941,0.18 1.29,0.544c0.361,0.359 0.541,0.786 0.541,1.303c0.005,0.499 -0.179,0.94 -0.541,1.295z" fill="#0080BF"/>
      <path id="svg_217" d="m294.98,4.204l0,-0.112c0,-0.336 -0.276,-0.621 -0.648,-0.621l0,0l-1.229,0l0,2.153l0.373,0l0,-0.793l0.752,0c0.146,0 0.281,0.118 0.306,0.259l0,0l0.076,0.535l0.372,0l-0.074,-0.535c-0.029,-0.148 -0.095,-0.281 -0.196,-0.382c0.165,-0.112 0.268,-0.296 0.268,-0.504zm-1.503,-0.378l0.855,0l0,0c0.161,0 0.278,0.122 0.278,0.267l0,0.111c0,0.152 -0.13,0.271 -0.286,0.271l-0.848,0l0,-0.649l0.001,0z" fill="#0080BF"/>
     </g>
    </g>
   </g>
   <g id="svg_218">
    <path id="svg_219" d="m98.979,14.56c-0.034,-0.086 -0.164,-0.396 -0.105,-0.522c0.058,-0.197 0.342,-0.456 0.508,-0.76c0.152,-0.3 0.465,-0.656 0.7,-0.978c0.787,-1.376 2.29,-3.572 3.152,-4.906l1.068,-1.332c0.025,-0.167 0.222,-0.574 0.455,-1.063c0.106,-0.24 0.236,-0.511 0.376,-0.75c-1.491,-0.167 -3.001,-0.167 -4.256,0.073c-0.842,0.136 -1.559,0.791 -2.414,1.146c-0.654,0.177 -1.172,-0.948 -0.554,-1.24c0.905,-0.362 1.104,-0.146 2.018,-0.479c0.938,-0.345 3.363,-0.197 5.511,0.043c0.304,-0.406 0.668,-0.688 1.09,-0.657c0.141,0.106 0.234,0.209 0.281,0.344c0.023,0.127 0.023,0.303 0.011,0.49c0.981,0.146 1.793,0.291 2.169,0.385c3.084,0.771 3.6,0.978 5.143,1.781c1.609,0.844 2.721,1.667 2.699,3.342c0,0.209 -0.048,0.669 -0.189,0.813c-0.34,0.687 -1.9,1.948 -3.061,2.354c-2.403,0.908 -4.633,2.076 -7.08,2.719c-0.982,0.18 -1.9,0.482 -2.4,0.605c-1.983,0.438 -4.07,1.019 -5.969,1.416c-1.312,0.272 -2.951,0.467 -4.358,0.646c-0.283,0.051 -0.33,0.072 -0.434,0.063l-0.227,0.02c-0.152,0.022 -0.34,0.051 -0.492,0.043c-0.539,0.043 -1.123,0.027 -1.477,-0.126c-0.246,0 -0.491,0.011 -0.618,-0.031c-0.131,-0.041 -0.14,-0.217 -0.2,-0.302c-0.131,-0.395 0.466,-0.928 0.818,-0.657c0.046,0.064 0.187,0.437 0.562,0.531c0.365,0.104 0.82,0.157 1.175,0.192c0.376,0 0.703,-0.013 0.853,-0.044c1.559,-0.24 2.695,-0.479 4.209,-0.832c2.543,-0.559 5.101,-1.383 7.619,-2.028c0.516,-0.136 1.031,-0.312 1.534,-0.488c2.004,-0.668 3.951,-1.564 5.745,-2.469c0.997,-0.503 2.381,-1.306 2.721,-2.2c0.339,-0.802 0.188,-1.489 -0.257,-2.041c-0.635,-0.78 -1.712,-1.332 -1.771,-1.355c-1.58,-0.645 -3.89,-1.146 -5.788,-1.604c-0.328,-0.084 -0.681,-0.155 -1.031,-0.22l-0.039,0.072c-0.352,0.604 -0.938,0.771 -1.312,1.375c-0.593,0.905 -2.281,2.737 -3.147,3.873c-0.574,0.771 -1.045,1.49 -1.326,2.146l-0.234,0.553c-0.093,0.25 -0.386,0.677 -0.539,0.969c-0.234,0.459 -0.187,0.803 -0.178,0.846c0.046,0.441 -0.679,0.547 -0.961,0.244z" stroke-miterlimit="10" stroke-width="0.2983" stroke="#FFFFFF" fill="#FFFFFF"/>
    <path id="svg_220" d="m118.487,12.756c-0.095,-0.011 -0.15,-0.041 -0.173,-0.095l-0.166,0.126c-0.071,0.053 -0.201,0.204 -0.271,0.322c-0.069,0.104 -0.056,0.197 -0.056,0.227c0,0.094 0.126,0.147 0.244,0.201c0.154,0.061 0.445,0.187 1.534,0.093c0.361,-0.019 0.784,0 1.713,-0.187c0.915,-0.174 1.407,-0.363 2.124,-0.562c0.325,-0.095 0.62,-0.167 0.971,-0.272c0.516,-0.134 0.783,-0.28 0.833,-0.311c0.118,-0.086 0.411,-0.095 0.327,0.104c-0.057,0.125 -0.396,0.227 -0.713,0.353c-0.505,0.208 -1.076,0.426 -1.304,0.489c-0.595,0.198 -1.16,0.353 -1.826,0.543c-0.682,0.145 -1.138,0.303 -1.734,0.394c-0.197,0.035 -0.573,0.104 -0.821,0.129c-0.855,0.072 -1.243,0.072 -1.569,0.051c-0.213,-0.011 -0.307,-0.044 -0.461,-0.094c-0.164,-0.054 -0.173,-0.104 -0.294,-0.169c-0.209,-0.113 -0.315,-0.321 -0.315,-0.562c0,-0.136 -0.011,-0.346 0.115,-0.532c0.083,-0.092 0.237,-0.321 0.494,-0.542c0.223,-0.186 0.538,-0.416 0.834,-0.583c0.442,-0.25 0.582,-0.334 0.818,-0.447c0.21,-0.104 0.502,-0.188 1.065,-0.428c1.01,-0.425 1.476,-0.532 2.064,-0.624l0.456,-0.084c0.271,-0.031 1.278,-0.052 1.325,0.363c0.011,0.146 -0.047,0.261 -0.294,0.447c-0.199,0.146 -0.339,0.261 -0.656,0.407c-0.479,0.228 -1.383,0.541 -2.237,0.822c-0.131,0.042 -0.306,0.095 -0.526,0.146c-0.157,0.064 -0.315,0.126 -0.458,0.166c-0.256,0.101 -0.772,0.267 -1.043,0.109zm0.47,-0.581l0.045,0c0.097,0 0.27,-0.01 0.459,-0.021c0.14,-0.01 0.153,0 0.258,-0.01l0.257,-0.041l0.269,-0.075c0.166,-0.04 0.306,-0.084 0.411,-0.125c0.515,-0.196 1.337,-0.54 1.606,-0.727c0.151,-0.104 0.025,-0.167 0.009,-0.179c-0.151,-0.051 -0.255,-0.051 -0.268,-0.051c-0.21,0.019 -0.423,0.019 -0.936,0.216c-0.094,0.043 -0.283,0.138 -0.397,0.19l-0.446,0.187c-0.361,0.157 -0.715,0.33 -1.009,0.501c-0.08,0.039 -0.176,0.081 -0.258,0.135z" stroke-miterlimit="10" stroke-width="0.2983" stroke="#FFFFFF" fill="#FFFFFF"/>
    <path id="svg_221" d="m127.05,11.88c0.306,-0.083 0.599,-0.155 0.797,-0.197c0.797,-0.178 1.385,-0.218 2.04,-0.229c0.01,-0.074 0.033,-0.145 0.059,-0.198c0.095,-0.197 0.059,-0.271 0.199,-0.437c0.443,-0.479 1.336,-1.062 2.038,-0.842c0.13,0.041 0.307,0.165 0.387,0.249c0.034,0.146 -0.035,0.387 -0.129,0.533c-0.165,0.251 -0.783,0.417 -1.016,0.251l-0.12,-0.077c-0.095,-0.054 -0.48,-0.115 -0.492,0.043c-0.011,0.155 -0.034,0.312 -0.011,0.479c0.068,0 0.139,-0.011 0.212,-0.011c1.442,-0.021 1.628,-0.01 2.989,0.126c0.188,0.009 0.482,0.072 0.714,0.154c0.155,0.052 0.257,0.097 0.257,0.145c0.07,0.104 -0.093,0.197 -0.186,0.263c-0.141,0.085 -0.317,0.114 -0.483,0.021c-0.187,-0.093 -0.21,-0.177 -0.479,-0.198c-0.141,-0.041 -0.481,-0.135 -0.895,-0.166c-0.6,-0.041 -1.312,-0.041 -1.556,-0.041l-0.527,0c0.071,0.26 0.176,0.51 0.279,0.729c0.14,0.271 0.19,0.56 -0.033,0.873c-0.129,0.167 -0.342,0.343 -0.55,0.458c-0.411,0.27 -1.087,0.501 -2.004,0.582c-0.765,0.084 -1.535,0.052 -1.946,-0.009c-0.362,-0.063 -0.688,-0.186 -0.971,-0.344c-0.306,-0.177 -0.518,-0.374 -0.527,-0.656c-0.012,-0.28 0.223,-0.615 0.67,-0.927c0.265,-0.169 0.339,-0.22 0.71,-0.395c0.155,-0.065 0.118,-0.097 0.317,-0.128l0.257,-0.051zm2.825,-0.125c-0.495,0.021 -0.983,0.065 -1.466,0.178c-0.408,0.094 -0.878,0.127 -1.267,0.238c-0.141,0.041 -0.386,0.179 -0.503,0.251c-0.174,0.102 -0.235,0.271 -0.329,0.47c-0.114,0.249 0.061,0.437 0.165,0.573c0.164,0.205 0.342,0.205 0.493,0.257c0.411,0.138 0.89,0.335 1.394,0.283c0.373,-0.054 0.479,-0.104 0.776,-0.146c0.223,-0.013 0.632,-0.146 0.773,-0.322c0.115,-0.136 0.375,-0.263 0.212,-0.637c-0.132,-0.29 -0.236,-0.76 -0.248,-1.145z" stroke-miterlimit="10" stroke-width="0.2983" stroke="#FFFFFF" fill="#FFFFFF"/>
    <path id="svg_222" d="m134.793,12.225c0.257,-0.47 0.482,-0.926 0.739,-1.23c0.294,-0.404 0.738,-0.467 1.078,-0.51c0.186,-0.02 0.435,0.147 0.468,0.303c0.081,0.167 -0.069,0.312 -0.199,0.425c-0.209,0.199 -0.412,0.284 -0.539,0.366c-0.115,0.115 -0.259,0.189 -0.353,0.262c-0.213,0.175 -0.326,0.311 -0.469,0.543c-0.199,0.333 -0.233,0.519 -0.148,0.809c0.113,0.46 0.747,0.399 1.133,0.336c0.751,-0.148 1.501,-0.241 2.216,-0.46c0.492,-0.146 0.986,-0.354 1.42,-0.57c0.235,-0.042 0.468,0.02 0.305,0.154c-1.148,0.669 -2.743,1.461 -4.223,1.638c-0.68,0.082 -1.523,0 -1.758,-0.634c-0.165,-0.451 0.048,-0.901 0.33,-1.432zm4.136,-5.406c0.142,0.073 0.271,0.147 0.059,0.428c-0.374,0.447 -0.495,0.55 -0.937,0.76c-0.026,0.01 -0.469,0.159 -0.706,-0.043c-0.082,-0.072 -0.034,-0.219 -0.082,-0.3c-0.129,-0.343 0.482,-0.543 0.941,-0.711c0.172,-0.072 0.125,-0.027 0.232,-0.072c0.256,-0.082 0.399,-0.092 0.493,-0.062z" stroke-miterlimit="10" stroke-width="0.2983" stroke="#FFFFFF" fill="#FFFFFF"/>
    <path id="svg_223" d="m149.258,13.498c-0.396,0.177 -0.654,0.271 -0.91,0.447l-1.129,0.8c-1.337,2.001 -2.541,3.29 -4.465,5.199c-0.353,0.371 -0.738,0.748 -1.15,1.123c-0.057,0.04 -1.817,1.913 -2.438,1.708c-0.153,-0.038 -0.188,-0.18 -0.167,-0.344c0.036,-0.305 0.097,-0.596 0.188,-0.777c0.178,-0.356 0.256,-0.575 1.654,-2.108c0.727,-0.79 2.239,-2.112 3.14,-2.827c0.576,-0.461 1.162,-0.888 1.795,-1.326l0.598,-0.438c0.456,-0.676 0.822,-1.373 0.995,-2.104c0.046,-0.22 -0.469,-0.479 -0.562,-0.458c-0.163,0.043 -0.326,0.033 -0.456,0.052c-0.366,0.053 -0.575,0.136 -0.961,0.271c-0.505,0.198 -1.396,0.479 -2.227,0.782c-0.608,0.219 -1.044,0.406 -1.604,0.52c-0.516,0.105 -0.996,0.208 -1.303,0.061c-0.282,-0.142 -0.307,-0.363 -0.307,-0.561c0.013,-0.242 0.233,-0.469 0.583,-0.802c0.669,-0.604 1.924,-1.343 3.262,-1.813c1.147,-0.394 1.675,-0.54 2.284,-0.717c0.26,-0.072 1.033,-0.01 1.276,0.009c0.167,0.032 0.188,0.074 0.246,0.201l0.059,0.479c0,0.238 -0.068,0.342 -0.27,0.436c-0.234,0.095 -0.525,0.146 -0.713,0c-0.199,-0.166 -0.766,-0.479 -1.195,-0.29c-0.386,0.165 -0.586,0.104 -1.348,0.425c-0.892,0.362 -1.582,0.779 -2.085,1.135c-0.213,0.145 -0.293,0.252 -0.436,0.376c-0.07,0.073 -0.126,0.154 -0.162,0.227c-0.026,0.053 -0.047,0.104 0.14,0.116c0.244,0.009 0.445,-0.021 0.656,-0.064c0.295,-0.053 0.361,-0.081 0.714,-0.167c0.67,-0.156 1.195,-0.343 1.711,-0.541c0.584,-0.22 1.104,-0.386 1.852,-0.604c0.587,-0.198 1.713,-0.428 1.958,0.175c0.15,0.383 -0.305,1.188 -0.691,1.771l0.443,-0.227c0.27,-0.146 0.646,-0.356 1.456,-0.679c0.244,-0.125 0.41,-0.229 0.725,-0.332c0.355,-0.125 0.554,-0.25 0.785,-0.303c0.069,-0.014 0.069,-0.022 0.199,-0.022c0.152,0 0.396,0.188 0.386,0.341c-0.01,0.095 -0.095,0.198 -0.233,0.271c-0.213,0.105 -0.352,0.022 -0.644,0.114c-0.154,0.042 -0.28,0.021 -0.514,0.054c-0.141,0.04 -0.307,0.072 -0.446,0.112c-0.083,0.023 -0.153,0.053 -0.282,0.103c-0.171,0.079 -0.217,0.113 -0.407,0.196zm-3.539,2.34l-0.154,0.128c-1.265,0.956 -2.847,2.604 -3.913,3.696c-0.707,0.741 -0.796,1.124 -0.81,1.239c0.939,-0.812 0.553,-0.321 1.384,-1.188c1.431,-1.469 2.378,-2.376 3.493,-3.875z" stroke-miterlimit="10" stroke-width="0.2983" stroke="#FFFFFF" fill="#FFFFFF"/>
    <path id="svg_224" d="m152.983,10.88c0.139,-0.165 0.375,-0.344 0.62,-0.394c0.398,-0.136 0.737,0.062 0.706,0.436c-0.175,0.479 -1.078,1.23 -1.444,1.646c-0.116,0.125 -0.164,0.228 -0.116,0.237c0.035,0 0.095,0.054 0.295,-0.03c0.196,-0.082 0.481,-0.219 0.563,-0.259c0.374,-0.2 1.357,-0.738 2.322,-1.238c0.924,-0.448 1.676,-0.761 2.146,-0.709c0.774,0.084 0.748,0.572 0.618,1.209c-0.068,0.354 -0.115,0.729 -0.127,0.967c0,0.543 0.55,0.771 1.089,0.771c0.682,0 1.515,-0.304 2.039,-0.531l0,-0.013c0.024,-0.009 0.06,-0.009 0.082,-0.009c0.326,-0.022 0.339,0.166 0.068,0.3c-0.938,0.438 -2.05,1.022 -2.881,0.961c-0.495,-0.032 -1.057,-0.429 -1.117,-1.012c-0.031,-0.319 -0.031,-0.592 0.014,-0.936c0.025,-0.212 0,-0.363 -0.025,-0.484c-0.02,-0.093 -0.112,-0.195 -0.196,-0.249c-0.069,-0.041 -0.223,-0.125 -0.419,-0.094c-0.389,0.061 -0.929,0.188 -1.551,0.48c-0.609,0.292 -1.208,0.696 -1.699,0.969c-0.409,0.227 -1.078,0.747 -1.466,0.927c-0.222,0.091 -0.37,0.205 -0.617,0.249c-0.11,0.032 -0.188,0.062 -0.283,0.04c-0.316,-0.031 -0.444,-0.138 -0.563,-0.386c-0.028,-0.27 0.186,-0.54 0.444,-0.854c0.129,-0.157 0.28,-0.364 0.396,-0.502c0.224,-0.289 0.46,-0.559 0.646,-0.757c0.34,-0.446 0.257,-0.468 0.424,-0.675c0.021,-0.021 0.021,-0.044 0.034,-0.054l0,-0.006l-0.002,0z" stroke-miterlimit="10" stroke-width="0.2983" stroke="#FFFFFF" fill="#FFFFFF"/>
    <path id="svg_225" d="m164.043,12.756c-0.096,-0.011 -0.153,-0.041 -0.177,-0.095l-0.162,0.126c-0.068,0.053 -0.2,0.204 -0.271,0.322c-0.068,0.104 -0.06,0.199 -0.06,0.229c0,0.094 0.13,0.145 0.248,0.2c0.151,0.062 0.443,0.185 1.531,0.091c0.364,-0.019 0.782,0 1.714,-0.187c0.912,-0.174 1.406,-0.363 2.122,-0.562c0.328,-0.095 0.622,-0.168 0.975,-0.272c0.513,-0.134 0.782,-0.28 0.833,-0.311c0.117,-0.086 0.412,-0.095 0.33,0.104c-0.06,0.125 -0.4,0.227 -0.713,0.353c-0.504,0.208 -1.082,0.426 -1.304,0.489c-0.597,0.198 -1.162,0.353 -1.828,0.543c-0.68,0.145 -1.136,0.303 -1.735,0.394c-0.2,0.035 -0.574,0.107 -0.819,0.129c-0.855,0.072 -1.244,0.072 -1.57,0.051c-0.212,-0.011 -0.307,-0.044 -0.458,-0.092c-0.166,-0.053 -0.176,-0.106 -0.295,-0.17c-0.213,-0.114 -0.316,-0.322 -0.316,-0.561c0,-0.136 -0.012,-0.345 0.117,-0.531c0.078,-0.095 0.231,-0.321 0.49,-0.544c0.221,-0.187 0.539,-0.417 0.832,-0.584c0.443,-0.25 0.583,-0.335 0.816,-0.447c0.212,-0.104 0.509,-0.188 1.069,-0.428c1.009,-0.425 1.477,-0.532 2.063,-0.624l0.454,-0.084c0.27,-0.031 1.278,-0.052 1.325,0.363c0.01,0.146 -0.047,0.261 -0.295,0.447c-0.198,0.146 -0.341,0.261 -0.656,0.407c-0.48,0.228 -1.383,0.542 -2.237,0.822c-0.127,0.042 -0.305,0.095 -0.527,0.146c-0.152,0.064 -0.316,0.126 -0.456,0.166c-0.255,0.102 -0.768,0.268 -1.04,0.11zm0.47,-0.581l0.044,0c0.099,0 0.271,-0.01 0.46,-0.021c0.14,-0.01 0.154,0 0.258,-0.01l0.259,-0.041l0.267,-0.075c0.165,-0.04 0.307,-0.084 0.412,-0.125c0.515,-0.196 1.335,-0.54 1.605,-0.727c0.151,-0.104 0.024,-0.167 0.009,-0.179c-0.151,-0.051 -0.257,-0.051 -0.27,-0.051c-0.209,0.02 -0.422,0.02 -0.936,0.218c-0.095,0.045 -0.282,0.136 -0.4,0.189l-0.445,0.188c-0.362,0.157 -0.711,0.335 -1.006,0.5c-0.081,0.038 -0.174,0.08 -0.257,0.134z" stroke-miterlimit="10" stroke-width="0.2983" stroke="#FFFFFF" fill="#FFFFFF"/>
    <path id="svg_226" d="m177.398,10.641c-0.069,0.324 -0.573,0.688 -0.96,0.584c-0.062,0 -0.619,-0.229 -1.031,-0.135c-0.13,0.053 -0.259,0.053 -0.421,0.105c-0.281,0.083 -0.714,0.322 -0.984,0.447c-0.704,0.323 -1.303,0.717 -1.521,0.958c-0.177,0.205 -0.539,0.5 -0.643,0.625c-0.222,0.25 -0.049,0.218 0.01,0.227c0.329,0.053 0.655,-0.083 1.208,-0.239c0.738,-0.246 1.407,-0.604 1.723,-0.77c0.985,-0.51 1.021,-0.456 2.214,-1.27c0.457,-0.322 0.554,-0.396 0.751,-0.563c0.283,-0.239 0.667,-0.666 1.206,-1.281c0.574,-0.792 1.208,-1.56 1.805,-2.331c0.435,-0.562 0.973,-1.374 1.594,-1.812c0.255,-0.083 0.491,-0.021 0.62,0.115c0.28,0.127 0.211,0.636 -0.045,0.947c-0.014,0.051 -0.14,0.167 -0.164,0.177l-0.176,0.116c-0.517,0.344 -0.644,0.529 -1.021,0.822l-0.069,0.084c-1.055,1.249 -2.111,2.342 -2.917,3.737c-0.27,0.5 -1.115,1.439 -0.549,2.146c0.199,0.24 0.797,0.227 1.086,0.179c0.528,-0.063 1.662,-0.252 2.356,-0.565c0.342,-0.146 0.436,-0.146 0.891,-0.426c0.224,-0.084 0.27,0 0.141,0.145c-0.212,0.261 -0.622,0.438 -1.162,0.762c-0.924,0.532 -2.555,1.177 -3.247,1.01c-0.653,-0.167 -1.007,-0.761 -0.924,-1.575c0.022,-0.331 0.127,-0.594 0.244,-0.916c0.096,-0.291 0.199,-0.509 0.327,-0.717c-0.164,0.146 -0.353,0.293 -0.565,0.449c-0.761,0.54 -0.583,0.342 -1.919,1.092c-0.446,0.21 -1.066,0.657 -1.574,0.855c-0.667,0.239 -1.721,0.688 -2.448,0.623c-0.611,-0.049 -0.976,-0.499 -0.691,-0.99c0.196,-0.334 0.81,-0.969 1.37,-1.29c0.506,-0.29 0.975,-0.542 1.421,-0.751c0.304,-0.135 1.407,-0.51 2.227,-0.741c0.565,-0.176 1.103,-0.323 1.454,-0.229c0.223,0.073 0.42,0.252 0.383,0.396z" stroke-miterlimit="10" stroke-width="0.2983" stroke="#FFFFFF" fill="#FFFFFF"/>
   </g>
   <g id="svg_227">
    <path id="svg_228" d="m319.604,13.517c0.643,-1.043 1.217,-1.823 2.125,-3.166c0.729,-1.095 1.615,-2.249 2.305,-3.219c0.381,-0.512 0.7,-1.333 0.876,-1.521c0.192,-0.581 0.365,-0.76 0.471,-0.949c0,-0.01 0.015,-0.01 0.029,-0.021c-1.266,0.084 -2.623,0.221 -3.566,0.335c-0.521,0.072 -1.015,0.229 -1.493,0.343c-1.227,0.291 -1.721,0.571 -1.964,0.74c-0.622,0.427 -1.047,0.385 -1.312,0.251c-0.578,-0.428 -0.213,-0.971 0.543,-1.283c0.657,-0.27 1.276,-0.344 1.968,-0.447c0.742,-0.135 1.549,-0.27 2.315,-0.27c0.991,0.009 2.551,-0.105 4.035,-0.168c0.122,-0.115 0.254,-0.219 0.407,-0.301c0.186,-0.104 0.367,-0.123 0.487,-0.123c0.319,-0.137 0.454,0.009 0.425,0.323l-0.024,0.06c0.335,0 0.654,0.013 0.945,0.023c2.041,0.117 4.102,0.427 5.7,1.104c0.787,0.344 2.896,1.647 2.714,2.738c-0.165,1.128 -0.665,1.864 -1.867,2.429c-1.695,0.833 -1.745,0.884 -3.649,1.478c-3.031,0.938 -4.719,1.438 -7.983,1.708l-1.636,0.188c-0.45,0.054 -0.861,0.054 -1.312,0.063l-0.047,0.072c-0.45,0.701 -0.896,1.618 -1.312,2.315l-0.378,1.195c-0.013,0.012 -0.024,0.022 -0.024,0.027l0,0.04c-0.352,0.45 -0.098,1.502 -0.525,1.749c-0.2,0.116 -0.471,0.159 -0.697,0.138c-0.352,-0.031 -0.524,-0.468 -0.44,-0.707c0.12,-0.366 0.229,-0.688 0.513,-1.057l0.024,-0.059c0.048,-0.093 0.13,-0.169 0.244,-0.229l0.13,-0.23l1.177,-2.203c0.068,-0.139 0.151,-0.271 0.221,-0.396c0.122,-0.221 0.244,-0.419 0.364,-0.604c-1.347,0.115 -3.201,0.104 -4.457,-0.054c-0.425,-0.062 -2.303,-0.311 -1.61,-1.175c0.182,-0.239 0.058,-0.145 0.349,-0.302c0.339,-0.176 0.849,-0.054 0.849,0.03c-0.017,0.229 -0.146,0.283 0.242,0.488c0.291,0.064 0.138,0.23 0.45,0.252c0.425,0.052 0.745,0.22 1.156,0.259c0.739,0.095 1.939,0.259 2.753,0.177l0.479,-0.041zm5.075,-5.938l-0.315,0.428c-0.837,1.103 -2.062,2.498 -2.862,3.644c-0.522,0.729 -0.756,1.156 -1.122,1.77c0.521,-0.063 1.021,-0.134 1.515,-0.228c0.988,-0.115 1.976,-0.27 2.944,-0.449l0.194,-0.04c0.528,-0.115 0.334,0.021 0.892,-0.115l0.746,-0.208c0.675,-0.146 1.356,-0.375 2.023,-0.553c1.058,-0.262 2.125,-0.667 3.12,-1.064c0.835,-0.332 1.721,-0.833 2.458,-1.342c0.822,-0.562 1.193,-1.094 1.184,-1.77c-0.013,-0.741 -0.837,-1.376 -1.624,-1.698c-1.835,-0.76 -4.202,-1.397 -6.187,-1.406c-0.198,0 -0.398,0 -0.634,0.011c-0.135,0.229 -0.294,0.459 -0.407,0.686c-0.091,0.086 -0.535,0.713 -0.638,0.73c-0.509,0.647 -0.68,0.812 -1.063,1.302l-0.139,0.188l-0.048,0.072c0,0.01 0,0.01 -0.026,0.021l0,0.011l-0.011,0.01z" stroke-miterlimit="10" stroke-width="0.2831" stroke="#FFFFFF" fill="#FFFFFF"/>
    <path id="svg_229" d="m335.911,13.206c0.031,0.209 0.102,0.519 -0.011,0.677c-0.351,0.438 -0.667,0.68 -1.152,1.053c-0.396,0.21 -0.762,0.064 -0.776,-0.298c0.035,-0.294 0.269,-0.639 0.474,-0.913c0.999,-1.236 2.498,-2.081 4.167,-2.654c0.698,-0.218 1.732,-0.498 2.34,-0.302c0.022,0 0.048,0.011 0.07,0.011c0.124,0.03 0.304,0.114 0.4,0.239c0.095,0.083 0.153,0.219 0.153,0.282c0,0.25 -0.485,0.761 -0.8,0.811c-0.194,0.021 -0.365,-0.011 -0.448,-0.093c-0.072,-0.062 0.027,-0.342 -0.215,-0.342c-0.282,-0.012 -0.524,-0.147 -0.708,-0.168c-0.148,0.012 -0.291,0.033 -0.426,0.054c-0.208,0.03 -0.402,0.03 -0.545,0.053c-0.391,0.104 -0.762,0.335 -1.119,0.511c-0.367,0.176 -0.702,0.395 -1.019,0.679c-0.116,0.085 -0.263,0.242 -0.385,0.4z" stroke-miterlimit="10" stroke-width="0.2831" stroke="#FFFFFF" fill="#FFFFFF"/>
    <path id="svg_230" d="m343.061,12.192c0.32,-0.197 0.688,-0.362 1.053,-0.52c-0.039,-0.167 0.333,-0.47 0.616,-0.551c0.124,-0.029 0.721,-0.086 0.865,-0.104c0.072,-0.013 0.117,-0.023 0.167,-0.023c0.159,-0.03 0.281,-0.042 0.354,-0.052c1.418,-0.085 3.215,0.062 4.621,0.197c0.744,0.072 0.936,0.126 1.556,0.364c0.324,0.113 0.558,0.469 0.082,0.595c-0.213,0.04 -0.267,-0.032 -0.419,-0.032c-0.271,-0.021 -0.485,-0.281 -0.475,-0.448c-0.011,-0.009 -0.027,-0.009 -0.031,-0.009c-0.235,-0.053 -0.45,-0.137 -0.684,-0.166c-0.312,-0.043 -0.63,-0.011 -0.969,-0.011c-0.479,0.011 -0.977,-0.032 -1.475,-0.032c0.254,0.137 0.403,0.323 0.413,0.543c0,0.656 -0.948,1.229 -1.666,1.572c-0.255,0.124 -0.513,0.28 -0.785,0.395c-0.18,0.073 -0.487,0.166 -0.682,0.229c-0.53,0.188 -0.985,0.292 -1.501,0.415c-0.4,0.094 -1.091,0.262 -1.691,0.281c-0.31,0.014 -0.604,-0.02 -0.785,-0.112c-0.353,-0.176 -0.411,-0.415 -0.353,-0.669c0.06,-0.24 0.243,-0.467 0.392,-0.666c0.313,-0.446 0.808,-0.851 1.397,-1.196zm3.705,-0.613c-0.556,0.145 -1.206,0.488 -1.512,0.521c-0.089,0.011 -0.391,-0.009 -0.634,-0.062c-0.209,0.116 -0.415,0.229 -0.633,0.374c-0.193,0.136 -0.373,0.23 -0.534,0.375c-0.118,0.115 -0.252,0.251 -0.376,0.396c-0.184,0.218 -0.33,0.447 -0.361,0.571c-0.031,0.085 -0.031,0.157 0.01,0.211c0.072,0.104 0.411,0.091 0.814,0.042c0.303,-0.042 0.623,-0.061 0.925,-0.137c0.276,-0.063 0.861,-0.281 0.98,-0.323c0.502,-0.146 0.765,-0.22 1.287,-0.427c0.254,-0.105 0.595,-0.312 0.801,-0.438c0.364,-0.218 0.632,-0.469 0.667,-0.771c0.037,-0.311 -0.813,-0.343 -1.434,-0.332z" stroke-miterlimit="10" stroke-width="0.2831" stroke="#FFFFFF" fill="#FFFFFF"/>
    <path id="svg_231" d="m357.657,11.338c-0.075,0.324 -0.595,0.688 -0.994,0.584c-0.062,0 -0.644,-0.229 -1.071,-0.136c-0.132,0.052 -0.267,0.052 -0.438,0.104c-0.294,0.085 -0.737,0.322 -1.017,0.45c-0.729,0.322 -1.349,0.717 -1.575,0.956c-0.185,0.208 -0.562,0.5 -0.667,0.624c-0.228,0.253 -0.046,0.221 0.014,0.229c0.337,0.053 0.68,-0.083 1.25,-0.239c0.764,-0.25 1.456,-0.604 1.786,-0.771c1.016,-0.512 1.056,-0.455 2.288,-1.271c0.475,-0.323 0.576,-0.396 0.776,-0.562c0.291,-0.239 0.694,-0.666 1.25,-1.284c0.592,-0.79 1.249,-1.561 1.868,-2.332c0.45,-0.562 1.006,-1.374 1.648,-1.812c0.272,-0.084 0.517,-0.021 0.645,0.113c0.287,0.126 0.215,0.636 -0.046,0.948c-0.015,0.05 -0.152,0.167 -0.171,0.176l-0.185,0.117c-0.53,0.343 -0.667,0.528 -1.055,0.821l-0.072,0.084c-1.095,1.25 -2.183,2.343 -3.021,3.739c-0.281,0.5 -1.15,1.435 -0.574,2.142c0.211,0.24 0.826,0.229 1.132,0.18c0.543,-0.064 1.72,-0.249 2.437,-0.565c0.354,-0.146 0.455,-0.146 0.924,-0.428c0.23,-0.08 0.278,0 0.15,0.147c-0.221,0.259 -0.648,0.438 -1.202,0.76c-0.96,0.533 -2.647,1.178 -3.357,1.009c-0.68,-0.164 -1.047,-0.757 -0.961,-1.57c0.029,-0.335 0.131,-0.595 0.254,-0.916c0.1,-0.292 0.209,-0.512 0.339,-0.718c-0.173,0.145 -0.365,0.291 -0.582,0.447c-0.789,0.541 -0.607,0.343 -1.986,1.094c-0.459,0.207 -1.102,0.657 -1.626,0.856c-0.691,0.239 -1.782,0.686 -2.531,0.623c-0.634,-0.05 -1.006,-0.499 -0.715,-0.988c0.204,-0.335 0.834,-0.972 1.419,-1.294c0.519,-0.292 1.008,-0.541 1.466,-0.75c0.318,-0.135 1.458,-0.511 2.307,-0.74c0.581,-0.178 1.141,-0.323 1.504,-0.229c0.219,0.082 0.426,0.258 0.389,0.402z" stroke-miterlimit="10" stroke-width="0.2831" stroke="#FFFFFF" fill="#FFFFFF"/>
    <path id="svg_232" d="m363.91,12.537c0.015,-0.021 0.015,-0.053 0.047,-0.094c-0.032,-0.157 -0.032,-0.333 0.015,-0.396c0.242,-0.281 0.393,-0.405 0.771,-0.597c0,0 0.019,0 0.033,-0.01c0.058,-0.054 0.113,-0.094 0.169,-0.116c0.256,-0.093 0.467,-0.156 0.69,-0.072c0.23,0.085 0.375,0.292 0.23,0.532c-0.132,0.168 -0.146,0.114 -0.315,0.281c-0.087,0.085 -0.269,0.168 -0.38,0.251c-0.213,0.157 -0.457,0.386 -0.605,0.543c-0.157,0.188 -0.132,0.198 -0.254,0.404c-0.122,0.169 -0.132,0.271 -0.146,0.377c-0.035,0.155 -0.013,0.278 0.217,0.292c0.12,0.008 0.265,0.062 0.471,0.03c0.475,-0.064 0.767,-0.211 1.345,-0.429c0.945,-0.365 1.276,-0.584 2.622,-1.28c0.217,-0.104 0.5,-0.312 0.884,-0.571c0.185,-0.113 0.306,-0.251 0.459,-0.312c0.15,-0.105 0.776,-0.072 0.943,0.104c0.306,0.282 0.207,0.532 0.112,0.688c-0.174,0.124 -0.222,0.239 -0.393,0.438c-0.316,0.374 -0.641,0.988 -0.652,1.166c-0.017,0.238 0.146,0.325 0.378,0.366c0.095,0.021 0.165,0.03 0.312,0.03c0.182,0 0.367,0 0.428,-0.01c0.471,-0.062 0.729,-0.135 1.188,-0.295c0.351,-0.114 1.36,-0.51 1.687,-0.665c0.111,-0.043 0.254,-0.188 0.352,-0.209l0.146,0.085c0.109,0.114 0.091,0.207 -0.046,0.313c-0.388,0.229 -1.46,0.667 -1.927,0.875c-0.838,0.376 -1.697,0.812 -2.414,0.742c-0.558,-0.063 -0.982,-0.564 -0.921,-1.19c0.035,-0.458 0.217,-0.835 0.384,-1.282c0.038,-0.105 -0.117,-0.105 -0.193,-0.083c-0.263,0.062 -0.471,0.198 -0.863,0.404c-0.58,0.312 -1.393,0.835 -2.266,1.201c-0.717,0.303 -1.615,0.696 -1.966,0.761c-0.279,0.05 -0.791,0.114 -1.072,0.01c-0.421,-0.167 -0.508,-0.406 -0.434,-0.752c0.092,-0.519 0.685,-1.135 0.964,-1.53z" stroke-miterlimit="10" stroke-width="0.2831" stroke="#FFFFFF" fill="#FFFFFF"/>
    <path id="svg_233" d="m380.658,12.163c-0.013,0.009 -0.035,0 -0.056,0.009c-0.272,0.086 -0.878,0.021 -1.111,-0.177c-0.267,0.012 -0.517,0.022 -0.661,0.063l-0.293,0.095c-0.241,0.084 -0.908,0.135 -1.162,0.229c-0.318,0.113 -0.622,0.282 -0.898,0.448c-0.271,0.167 -0.437,0.292 -0.645,0.445c-0.06,0.054 -0.192,0.22 -0.226,0.355c-0.037,0.126 -0.047,0.252 -0.037,0.344c-0.026,0.126 0.452,0.24 0.63,0.26c0.304,0.042 1.169,-0.044 1.312,-0.062c1.189,-0.114 2.829,-0.573 4.068,-0.896c0.678,-0.198 0.82,-0.28 1.475,-0.489c0.332,-0.105 0.599,0.043 0.271,0.229c-0.387,0.22 -1.03,0.395 -1.576,0.563c-0.679,0.218 -1.697,0.635 -2.572,0.802c-0.754,0.155 -2.573,0.53 -3.35,0.576c-0.329,0.019 -1.409,0.051 -1.479,-0.47c-0.014,-0.135 -0.03,-0.296 0,-0.513c0.023,-0.198 0.094,-0.312 0.205,-0.448c0.122,-0.146 0.371,-0.365 0.558,-0.53c0.547,-0.469 1.353,-0.896 2.151,-1.209c0.882,-0.343 2.484,-0.718 3.253,-0.875c0.231,-0.052 0.46,0.022 0.677,0.041c0.244,0.063 0.341,0.146 0.374,0.357l-0.021,0.301l-0.013,0.073c-0.111,0.061 -0.212,0.133 -0.33,0.187c-0.148,0.135 -0.354,0.229 -0.519,0.293l-0.015,0l0,0l-0.01,0l0,-0.001z" stroke-miterlimit="10" stroke-width="0.2831" stroke="#FFFFFF" fill="#FFFFFF"/>
    <path id="svg_234" d="m384.671,13.454c-0.096,-0.01 -0.153,-0.041 -0.185,-0.093l-0.167,0.126c-0.074,0.053 -0.213,0.207 -0.278,0.323c-0.07,0.104 -0.062,0.195 -0.062,0.229c0,0.095 0.135,0.146 0.259,0.196c0.156,0.062 0.458,0.188 1.588,0.096c0.376,-0.02 0.817,0 1.771,-0.188c0.944,-0.179 1.454,-0.369 2.195,-0.565c0.337,-0.092 0.643,-0.167 1.008,-0.271c0.535,-0.135 0.812,-0.28 0.861,-0.312c0.122,-0.086 0.426,-0.094 0.345,0.104c-0.064,0.126 -0.419,0.227 -0.745,0.354c-0.519,0.208 -1.12,0.427 -1.349,0.492c-0.62,0.197 -1.2,0.353 -1.896,0.541c-0.702,0.146 -1.173,0.301 -1.792,0.399c-0.213,0.027 -0.593,0.1 -0.853,0.123c-0.885,0.073 -1.283,0.073 -1.626,0.05c-0.212,-0.012 -0.312,-0.039 -0.471,-0.095c-0.167,-0.051 -0.182,-0.101 -0.304,-0.163c-0.217,-0.112 -0.326,-0.324 -0.326,-0.566c0,-0.134 -0.012,-0.343 0.12,-0.531c0.085,-0.096 0.243,-0.323 0.51,-0.543c0.229,-0.19 0.563,-0.417 0.867,-0.583c0.459,-0.25 0.605,-0.334 0.849,-0.447c0.215,-0.104 0.519,-0.189 1.105,-0.428c1.041,-0.428 1.526,-0.53 2.133,-0.626l0.469,-0.085c0.281,-0.028 1.326,-0.051 1.376,0.364c0.01,0.146 -0.048,0.259 -0.308,0.448c-0.205,0.146 -0.35,0.259 -0.678,0.406c-0.5,0.229 -1.431,0.541 -2.317,0.822c-0.132,0.041 -0.313,0.094 -0.543,0.146c-0.159,0.062 -0.33,0.125 -0.475,0.166c-0.272,0.101 -0.801,0.267 -1.081,0.111zm0.483,-0.583l0.045,0c0.102,0 0.281,-0.011 0.478,-0.021c0.145,-0.012 0.152,0 0.264,-0.012l0.272,-0.039l0.277,-0.074c0.167,-0.041 0.315,-0.082 0.425,-0.123c0.533,-0.198 1.38,-0.542 1.661,-0.73c0.152,-0.104 0.026,-0.167 0.014,-0.178c-0.158,-0.051 -0.272,-0.051 -0.278,-0.051c-0.215,0.021 -0.436,0.021 -0.969,0.219c-0.093,0.042 -0.295,0.136 -0.415,0.188l-0.454,0.188c-0.378,0.158 -0.739,0.335 -1.043,0.499c-0.095,0.041 -0.191,0.081 -0.277,0.134z" stroke-miterlimit="10" stroke-width="0.2831" stroke="#FFFFFF" fill="#FFFFFF"/>
    <path id="svg_235" d="m398.484,11.338c-0.074,0.324 -0.595,0.688 -0.998,0.584c-0.06,0 -0.642,-0.229 -1.067,-0.136c-0.134,0.052 -0.267,0.052 -0.438,0.104c-0.287,0.085 -0.739,0.322 -1.017,0.45c-0.727,0.322 -1.348,0.717 -1.577,0.956c-0.182,0.208 -0.556,0.5 -0.665,0.624c-0.229,0.253 -0.048,0.221 0.015,0.229c0.334,0.053 0.679,-0.083 1.249,-0.239c0.764,-0.25 1.454,-0.604 1.782,-0.771c1.021,-0.512 1.062,-0.455 2.294,-1.271c0.474,-0.323 0.572,-0.396 0.779,-0.562c0.289,-0.239 0.689,-0.666 1.247,-1.284c0.593,-0.79 1.249,-1.561 1.869,-2.332c0.45,-0.562 1.008,-1.374 1.646,-1.812c0.269,-0.084 0.517,-0.021 0.645,0.113c0.289,0.126 0.215,0.636 -0.048,0.948c-0.012,0.05 -0.146,0.167 -0.171,0.176l-0.18,0.117c-0.535,0.343 -0.665,0.528 -1.056,0.821l-0.072,0.084c-1.093,1.25 -2.183,2.343 -3.02,3.739c-0.278,0.5 -1.154,1.435 -0.571,2.142c0.206,0.24 0.819,0.229 1.125,0.18c0.543,-0.064 1.721,-0.249 2.435,-0.565c0.355,-0.146 0.453,-0.146 0.924,-0.428c0.233,-0.08 0.278,0 0.152,0.147c-0.219,0.259 -0.643,0.438 -1.202,0.76c-0.956,0.533 -2.647,1.178 -3.359,1.009c-0.678,-0.164 -1.043,-0.757 -0.958,-1.57c0.026,-0.335 0.132,-0.595 0.254,-0.916c0.099,-0.292 0.215,-0.512 0.341,-0.718c-0.172,0.145 -0.364,0.291 -0.585,0.447c-0.789,0.541 -0.607,0.343 -1.984,1.094c-0.463,0.207 -1.106,0.657 -1.625,0.856c-0.69,0.239 -1.784,0.686 -2.536,0.623c-0.63,-0.05 -1.006,-0.499 -0.713,-0.988c0.207,-0.335 0.833,-0.972 1.417,-1.294c0.521,-0.292 1.012,-0.541 1.471,-0.75c0.315,-0.135 1.46,-0.511 2.307,-0.74c0.578,-0.178 1.14,-0.323 1.507,-0.229c0.211,0.082 0.422,0.258 0.383,0.402z" stroke-miterlimit="10" stroke-width="0.2831" stroke="#FFFFFF" fill="#FFFFFF"/>
   </g>
  </g>
 </g>
</svg>