<?xml version="1.0" encoding="UTF-8"?>
<!DOCTYPE svg PUBLIC "-//W3C//DTD SVG 1.0//EN" "http://www.w3.org/TR/2001/REC-SVG-20010904/DTD/svg10.dtd">
<!-- Creator: CorelDRAW 2018 -->
<svg xmlns="http://www.w3.org/2000/svg" xml:space="preserve" width="191.365mm" height="32.5114mm" version="1.0" shape-rendering="geometricPrecision" text-rendering="geometricPrecision" image-rendering="optimizeQuality" fill-rule="evenodd" clip-rule="evenodd"
viewBox="0 0 17425.41 2960.43"
 xmlns:xlink="http://www.w3.org/1999/xlink"
 baseProfile="tiny"
 xmlns:rdf="http://www.w3.org/1999/02/22-rdf-syntax-ns#"
 xmlns:dc="http://purl.org/dc/elements/1.1/"
 xmlns:cc="http://creativecommons.org/ns#">
 <g id="Capa_x0020_1">
  <metadata id="CorelCorpID_0Corel-Layer"/>
  <path fill="#605439" d="M14465 1463.08c0,251.79 45.03,432.1 140.91,647.76l80.81 147.8c42.32,67.48 61.11,93.15 113.53,160.79 44.44,57.36 143.67,156.37 204.11,203.57 9.11,7.09 17.18,13.18 25.38,20.34l103.62 75.44c111.82,68.08 140.94,85.74 267.76,139.93 128.78,55.04 355.73,101.71 492.65,101.71 155.48,0 252.36,-3.29 398.37,-39.78 102.95,-25.73 178.17,-51.76 272.15,-93.61 19.45,-8.67 38.08,-19.05 58.49,-29.14 42.36,-20.98 137.56,-77.64 171.28,-103.05l78.37 -58.79c47.3,-35.01 173.25,-158.53 206.27,-201.4l79.43 -103.45c26.49,-35.82 47.2,-72.35 70.77,-112.1 115.12,-194.1 196.5,-453.55 196.5,-717.91 0,-107.42 -4.87,-214.36 -28.98,-317.73 -19.49,-83.56 -39.84,-165.44 -71.63,-244.61 -5.1,-12.7 -9.12,-18.52 -14.28,-31.44 -15.48,-38.81 -35.54,-86.01 -57.28,-121.79l-33.36 -58.08c-6.41,-11.22 -9.17,-17.29 -16.94,-28.78l-36.06 -55.38c-7.52,-10.19 -10.78,-17.43 -18.66,-27.07l-79.31 -99.75c-9.32,-11.91 -11.7,-13.72 -21.7,-24.03l-66.62 -70.55c-47.17,-47.19 -92.51,-84.89 -145.72,-124.79 -8.77,-6.56 -16.8,-12.78 -26.08,-19.64 -9.41,-6.95 -18.18,-12.04 -27.24,-18.48l-231.32 -130.65c-21.62,-9.32 -41.42,-17.34 -62.07,-25.54 -20.17,-8.04 -44.1,-18.66 -66.35,-25.1 -182.74,-53.02 -285.44,-77.77 -497.56,-77.77 -139.5,0 -334.26,33.09 -463.19,81.66 -24.17,9.11 -44.88,15.29 -66.51,24.91 -117.16,52.16 -129.63,56 -241.54,124.23l-108.02 74.86c-8.95,7.4 -15.9,12.93 -25.39,20.34 -10.68,8.34 -15.46,13.29 -25,20.72l-119.04 109.56c-67.48,76.65 -101.3,115.4 -162.4,203.37 -54.89,79.05 -121.32,211.06 -155.17,302.03 -35.39,95.12 -70.08,231.77 -80.89,330.61 -6.16,56.41 -12.1,109.4 -12.1,170.78l-0.01 0.01z"/>
  <path fill="#EFB21B" d="M16922.49 1666.78l248.36 -298.24c32.67,-40.9 40.87,-26.68 32.11,-90.62l-32.25 -241.82c-4.01,-18.38 -41.69,-65.72 -54.07,-83.32 -80.74,-114.74 -147.25,-204.84 -227.31,-317.62 -23.45,-33.03 -25.61,-25.32 -93.36,-43.38 -48.95,-13.04 -300.96,-83.28 -326.85,-86.42 -17.44,19.64 -39.66,55.21 -54.27,76.76 -17.06,25.15 -35.89,52.39 -52.29,77.12 -38.42,58 -67.18,95.59 -105.59,153.45 -35.9,54.08 -27.21,29.51 37.4,173.39 27.85,62.03 55.41,119.86 82.86,179.99 35.59,77.91 54.02,83.32 105.49,153.74 43.33,59.28 124.59,156.5 173.48,219.14 54.84,70.28 30.74,46.84 165.23,94.26 24.8,8.76 75.85,29.38 101.1,33.56l-0.03 0z"/>
  <path fill="#2394D8" d="M17109.45 1748.39l-535.46 -0.97c-8.39,20.87 -344.64,436.66 -357.76,453.41 -24.89,31.74 -23.78,25.39 -25.02,73.79 -0.85,33.03 -1.41,66.05 -2.52,99.06 -2.05,61.36 -8.62,138.69 -5.89,198.49 1.01,21.91 21.7,30.88 47.13,52.12 135.8,113.4 94.19,92.29 202.06,70.65 56.36,-11.31 110.96,-23.07 167.43,-34.77 33.38,-6.92 83.95,-61.51 114.03,-87.86l324.6 -285.03c10.9,-9.42 16.04,-14.09 26.77,-22.85 13.04,-10.64 15.88,-12.45 17.12,-31.42l16.45 -289.89c3.11,-62.93 10.94,-131.93 11.06,-194.72l-0.01 -0.02z"/>
  <path fill="#2394D8" d="M14810.55 1946.96c1.44,207.23 91.39,426.71 247.24,546.52 113.7,87.42 235.91,163.2 363.82,230.71 26.79,14.13 113.24,60.56 137.82,66.16l-136.13 -872.67c-16.91,-0.87 -178.24,50.44 -216.77,62.21 -20.69,6.33 -58.61,14.28 -71.93,25.04 15.73,2.83 34.84,3.12 46.75,10.59 -14.11,18.69 -77.62,55.73 -89.52,77.34l79.93 9.11c-1.76,10.46 -39.24,42.41 -48.98,54.53 0.91,0.74 2.45,0.35 3.05,1.76 4.18,10.03 137.83,6.99 146.8,13.49 8.06,12.92 57.08,203.31 58.2,224.82 -80.16,-15.74 -214.95,-119.52 -271.01,-198.77 -206.71,-292.23 -74.94,-592.24 207.91,-486.1 57.18,21.45 112.44,50.81 158.45,78 24.59,14.51 47.13,29 72.49,45.4 16.52,10.69 57.43,42.01 69.15,45.67 -6.33,-20.48 -20.58,-46.8 -30.97,-68.87l-98.8 -216.92c-30.83,-67.05 -26.9,-76.65 -100.41,-108.67 -55.57,-24.2 -111.42,-35.25 -179.25,-33.77 -256.4,5.59 -348.15,246.27 -347.85,494.42l-0.01 0z"/>
  <path fill="#EFB21B" d="M15620.54 395.3l9.33 1182.55 424.56 -301.01c25.64,-18.2 133.05,-91.55 139.07,-101.61l-84.53 -0.1c8.6,-13.09 32.05,-18.42 43.99,-32.95l-82.21 0.32c10.82,-4.13 42.76,-24.98 54.04,-31.35 19.44,-10.97 38.07,-20.18 54.8,-31.53l-381.68 45.92 -0.19 -108.21c21.79,-19.79 441.74,-312.38 509.66,-363.61l-509.84 27.82c0.31,-26.16 4.2,-22.27 50.35,-49.17 51.81,-30.19 411.03,-236.77 419.14,-246.17l-165.39 8.79 16.31 -14.85c24.2,-14.85 122.46,-73.98 128.95,-82.89l-82.35 -10.92c12.65,-15.31 61.43,-41.09 83.1,-54.45 5.73,-3.53 7.88,-4.31 14.22,-8.44l-641.31 171.91 -0.02 -0.02z"/>
  <path fill="#EFB21B" d="M15275.14 955.58c-25.82,-8.83 -325.04,-246 -383.42,-282.13 -14.32,8.53 -49.34,56.3 -58.96,67.68 -28.04,33.18 -40.68,30.7 -42.68,85.59l-23.39 621.04c-1.51,36.4 -6.87,90.52 -3.55,125.11 19.13,-37.85 36.51,-86.25 53.41,-127.82l107.98 -258.1c10.82,-26.51 41.36,-109.16 54.84,-127.92 24.42,10.15 519.92,404.97 553.56,420.13l-11.32 -1028.6c-15.41,8.67 -59.75,69.26 -64.06,80.53 -7.76,-8.69 -5.65,0.29 -9.96,-35.77 -1.42,-11.84 -2.27,-29.1 -7.2,-36.66 -9.22,13.56 -39.4,75.57 -47.54,81.35l-18.96 -161.05 -98.74 576.59 -0.01 0z"/>
  <path fill="#2394D8" d="M15929.09 2706.84c-9.27,-33.27 -34.06,-58.85 -45.3,-91.68 15.8,10.73 65.55,58.89 76.35,61.87l-42.83 -107.95 94.22 15.4c-3.44,-16.36 -113.1,-222.94 -128.8,-252.78 -20.41,-38.74 -122.24,-230.99 -131.49,-257.63l478.34 18.38c-14.69,-41.51 -227.1,-367.07 -230.69,-396.97l24.09 -25.92 361.29 124.86c-6.02,-19.44 -40.73,-57.91 -51.2,-74.19l102.6 35.24c-5.94,-19.12 -67.68,-90.09 -72.74,-116.16l35.42 5.55c-9.64,-18.34 -254.33,-209.78 -297.25,-244.35 -15.68,-12.63 -29.4,-29.15 -47.33,-35.05 -19.18,16.93 -265.19,364.46 -309.22,420.73 -62.15,79.41 -152.93,209.01 -215.63,295.15 -6.6,9.06 -26.96,34.03 -31.01,41.72 -8.49,16.11 10.76,30.64 20.24,43.37l156.93 208.63c43.75,57.89 80.09,107.71 124.41,165.26l93.31 123.83c6.87,10.04 25.75,36.38 36.26,42.68l0.02 -0.01z"/>
  <path fill="#605439" d="M16371.27 2467.25l98.63 0.44 26.03 56.23c70.75,19.34 142.09,-31.89 217.6,-65.43 -2.93,-13.37 -49.29,-116.25 -57.75,-128.09 -55.4,13.19 -59.31,34.4 -137.16,27.69l-68.9 -86.56c-16.83,3.51 -41.07,16.93 -60.96,25.72 -34.4,15.19 -27.76,11.82 -46.28,41.56 -17.16,27.57 -6.33,35.06 3.65,62.58 6.15,16.96 17.18,54.94 25.15,65.88l-0.01 -0.02z"/>
  <path fill="#605439" d="M16689.99 1356.4c31.01,74.46 187.47,91.54 255.85,34.61 24.83,-20.67 60.44,-65.26 72.21,-102.98 11.76,-37.62 19.06,-119.29 -0.29,-153.38 -51.37,57.19 -26.26,216.58 -198.78,236.28 -60.39,6.9 -79.29,0.94 -128.98,-14.53z"/>
  <path fill="#605439" d="M16638.56 1904.27l-36.71 69.38c-6.79,18.16 25.27,55.86 34.89,68.13 23.97,1.49 77.09,-1.81 95.88,-9.92 7.76,-5.38 11.45,-21.78 15.08,-31.41 16.42,-43.33 24.84,-40.28 -11.61,-103.6l-97.53 7.4 -0.01 0.01z"/>
  <path fill="#605439" d="M16720.56 924.75l64.72 3.08c11.58,-15.02 34.79,-48.83 27.7,-67.15 -3.65,-9.41 -33.04,-54.45 -37.93,-60.66l-50.15 0.45c-44.96,65.39 -47.47,50.92 -4.34,124.29l0 0z"/>
  <path fill="#605439" d="M16844.38 2093.38l-0.52 47.89 47.63 29.01c13.02,-5.36 29.79,-18.18 40.74,-29.01l-0.06 -47.12c-29.69,-9.01 -59.36,-15.21 -87.77,-0.78l-0.02 0.02z"/>
  <path fill="#605439" d="M16470.42 998.25c50.9,49.89 68.42,27.58 94.96,0 -3.52,-63.26 -86.4,-68.39 -94.96,0z"/>
  <g id="_759344192">
   <g>
    <g>
     <g>
      <path fill="#605439" d="M8524.24 1875.35l54.07 0c50.5,0 136.84,10.4 172.42,31.23 35.58,20.71 59.05,43.94 70.34,69.65 11.35,25.7 17.08,82.38 17.08,169.92l0 343.69c0,103.72 -109.59,156.56 -162.38,168.03 -53.04,11.43 -104.55,17.17 -154.71,17.17 -144.69,0 -269.63,-37.64 -374.95,-113.01 -105.18,-75.39 -181.4,-193.22 -228.7,-353.91 -47.19,-160.49 -70.72,-347.04 -70.72,-560.15 0,-175.77 21.55,-347.22 64.7,-514.24 43.25,-167.06 116.75,-297.22 220.55,-390.66 103.81,-93.34 233.92,-140.04 390.14,-140.04 163.5,0 259.19,41.39 379.51,166.48 123.09,127.84 241.17,273.12 310.09,486.39l100.66 -0.01 0 -783 -57.27 0c-20.66,62.71 -43.21,105.32 -67.85,127.79 -24.75,22.57 -51.53,33.8 -80.18,33.8 -18.58,0 -78.54,-20.39 -179.8,-61.16 -101.22,-40.82 -174.53,-65.6 -219.7,-74.33 -83.24,-17.37 -147.93,-26.15 -251.69,-26.15 -335.23,0 -613.41,115.2 -834.53,345.54 -221.12,230.54 -331.63,512.73 -331.63,846.8 0,186.66 35.87,355.37 107.92,506.03 56.5,116.84 134.95,221.82 235.18,315.27 100.27,93.32 216.03,168.66 347.04,226.12 131.15,57.22 295.94,85.91 494.37,85.91 155.34,0 305.05,-16.04 449.61,-48.13 144.52,-32.18 283.47,-79.79 417.43,-142.92l0 -461.88c0,-80.94 4.57,-131.83 13.8,-152.52 16.43,-39.43 39.77,-67.6 70.08,-84.64 30.24,-17.04 112.88,-28.06 189.88,-33.62l0 -75.61 -1091.09 0 0 75.61 0.32 0.54z"/>
      <g>
       <path fill="#605439" d="M11032.21 2473.57c-124.33,95.19 -289.82,142.76 -496.19,142.76l-117.65 0c-63.06,0 -108.6,-8.58 -136.93,-25.92 -28.08,-17.33 -47.52,-39.54 -57.79,-66.59 -10.31,-27.04 -15.48,-101.22 -15.48,-222.33l0 -620.34c106.01,0 230.14,13.8 285.86,41.5 55.67,27.56 104.55,81.55 146.54,161.82 42.17,80.2 69.74,168.84 82.85,294.61l89.45 0 0 -1141.61 -89.45 0c-17.56,171.52 -57.92,286.67 -121.32,374.54 -63.35,87.87 -165.53,131.83 -306.38,131.83l-87.67 0 0 -765.76c-0.7,-133.11 117.92,-117.69 117.92,-117.69l138.62 0c167.6,0 281.76,9.81 342.7,29.37 104.46,32.47 185.31,83.4 242.42,152.73 57.18,69.4 101.45,183.65 133.02,342.97l75.05 0 0 -652.1 -1865.24 0 0 89.32 58.82 0c71.67,0 128.17,15.14 169.4,45.44 29.37,20.57 49.51,49.91 60.29,87.76 5.51,22.64 8.23,83.85 8.23,183.46l0 1379.62c0,110.4 -5.98,178.63 -17.98,204.69 -15.19,36.75 -37,62.74 -65.17,77.93 -39.16,22.77 -90.71,34.11 -154.71,34.11l-58.87 0 0 103.76 1896.82 0 113.98 -701.51 -104.03 0c-54.34,195.28 -143.71,340.54 -268.12,435.69l1.01 -0.05zm0 0l0 0 0 0z"/>
      </g>
      <g>
       <path fill="#605439" d="M12499.87 498.74c-317.86,-13.12 -585.76,90.47 -803.3,310.97 -217.97,220.32 -326.61,495.86 -326.61,826.16 0,294.3 83.66,548.58 251.14,763.01 211.85,271.23 511.67,407.04 899.56,407.04 386.61,0 686.12,-142.2 898.05,-426.75 160,-214.14 240.04,-462.59 240.04,-744.95 0,-330.32 -107.34,-605.47 -321.73,-825.42 -214.62,-219.97 -493.43,-323.28 -836.78,-310.04l-0.38 -0.03zm507.4 1765.62c-51.96,153.63 -124.47,265.49 -217.72,335.32 -73.14,54.77 -164.27,82.07 -273.48,82.07 -162.16,0 -288.13,-63.49 -378.37,-190.24 -129.26,-181.47 -193.95,-461.86 -193.95,-841.4 0,-319.37 41.83,-564.22 125.59,-734.75 102.77,-207.69 252.64,-311.54 449.66,-311.54 107.05,0 201.63,30.11 283.75,90.26 82.12,60.11 149.69,163.21 202.62,309.12 53.04,146.07 79.53,365.97 79.53,660.26 0,247.09 -25.92,447.5 -77.93,601.18l0.31 -0.29zm0 0l0 0 0 0z"/>
      </g>
     </g>
     <g>
      <path fill="#605439" d="M5457.03 2793.07c386.61,0 686.08,-142.24 898.05,-426.75 159.95,-214.39 240.02,-462.55 240.02,-744.95 0,-330.32 -107.34,-605.45 -321.77,-825.42 -214.57,-219.94 -493.41,-323.24 -836.73,-310.04 -317.86,-13.09 -585.76,90.48 -803.3,310.99 -217.92,220.31 -326.61,495.86 -326.61,826.16 0,294.27 83.65,548.58 251.18,763 211.77,271.23 511.63,407.04 899.54,407.04l-0.38 -0.03zm-454.79 -1889.34c102.75,-207.69 252.64,-311.54 449.77,-311.54 107.02,0 201.56,30.04 283.67,90.21 82.12,60.15 149.67,163.21 202.69,309.12 52.97,146.05 79.48,365.95 79.48,660.06 0,247.09 -25.92,447.54 -77.91,601.18 -51.87,153.63 -124.47,265.49 -217.72,335.5 -73.09,54.68 -164.25,82.03 -273.48,82.03 -162.16,0 -288.15,-63.44 -378.44,-190.24 -129.24,-181.49 -193.94,-461.86 -193.94,-841.4 0,-319.37 41.81,-564.22 125.54,-734.75l0.33 -0.18zm0 0l0 0 0 0z"/>
     </g>
     <path fill="#605439" d="M4336.78 2020.27l-104.13 0c-54.33,195.24 -143.73,340.54 -268.08,435.64 -124.35,95.19 -289.82,142.76 -496.01,142.76l-117.67 0c-63.03,0 -108.53,-8.69 -136.86,-25.88 -28.2,-17.39 -47.52,-39.6 -57.83,-66.63 -10.28,-27.09 -15.48,-101.24 -15.48,-222.37l0 -620.34c105.99,0 230.16,13.84 285.9,41.52 55.67,27.55 104.57,81.6 146.57,161.82 42.12,80.25 69.71,168.84 82.84,294.64l89.46 -0.02 0 -1141.63 -89.47 0c-17.53,171.45 -57.95,286.67 -121.34,374.54 -63.26,87.9 -165.49,131.8 -306.34,131.8l-87.69 0.01 0 -765.76c-0.72,-133.13 118,-117.69 118,-117.69l138.51 0c167.72,0 282.01,9.79 342.95,29.3 104.53,32.47 185.31,83.46 242.45,152.78 57.18,69.36 101.49,183.72 133.08,342.93l74.98 0 0 -652.61 -1865.22 0 0 89.87 58.78 0c71.67,0 128.17,15.17 169.42,45.39 29.32,20.57 49.42,49.91 60.22,87.79 5.49,22.66 8.23,83.83 8.23,183.43l0 1379.64c0,110.4 -5.96,178.63 -17.94,204.51 -15.17,36.75 -37,62.88 -65.1,77.97 -39.16,22.77 -90.73,34.11 -154.86,34.11l-58.78 0 0 103.76 1896.8 0 114.02 -701.51 0.58 0.25z"/>
     <path fill="#605439" d="M756.84 2616.6l-50.34 0c-72.24,0 -136.4,-22.16 -192.49,-66.55 -55.99,-44.4 -84.03,-129.73 -84.03,-256.36l0 -1332.46 1443.31 1799.28 93.59 0.14 0 -1835.13c0,-104.34 8.66,-134.64 25.88,-177.57 17.22,-42.93 41.29,-73.92 72.04,-92.96 30.79,-18.99 91.14,-34.47 180.92,-46.45l0 -93.36 -716.02 0.01 0 93.36c118.03,-2.16 202.32,28.24 252.29,91.3 36.59,46.74 54.88,93.05 54.88,225.73l0 961.05 -1123.6 -1371.43 -683.67 -0.01 0 74.06c64.99,2.16 67.31,23.92 101.91,42.31l183.13 184.32 -0.25 1477.65c0,116.86 -23.09,199.54 -69.18,248.19 -46.13,48.7 -127.91,73.54 -245.22,74.62l0 89.32 756.5 -0.01 0 -89.32 0.34 0.27z"/>
     <path fill="#605439" stroke="black" stroke-width="3" stroke-miterlimit="22.9256" d="M7211 1639.4c0,146.63 -118.86,265.44 -265.4,265.44 -146.65,0 -265.47,-118.9 -265.47,-265.44 0,-146.65 118.9,-265.44 265.47,-265.44 146.65,0 265.4,118.89 265.4,265.44z"/>
    </g>
   </g>
  </g>
 </g>
</svg>
